<svg width="50" height="50" viewBox="0 0 50 50" fill="none" xmlns="http://www.w3.org/2000/svg">
<path d="M50 25C50 38.8071 38.8071 50 25 50C11.1929 50 0 38.8071 0 25C0 11.1929 11.1929 0 25 0C38.8071 0 50 11.1929 50 25Z" fill="pink"/>
<path fill-rule="evenodd" clip-rule="evenodd" d="M9.34896 13.0831C9.15917 13.1844 9 13.4501 9 13.6657C9 13.8813 9.14973 14.1266 9.34995 14.2391C9.5204 14.3349 9.57764 14.3399 10.5011 14.3399C11.0356 14.3399 11.4729 14.355 11.4729 14.3736C11.4726 14.5261 14.0109 30.8713 14.0642 31.0608C14.2669 31.7806 14.8404 32.4688 15.507 32.7919C15.8163 32.9419 15.873 32.9858 15.8544 33.061C15.8421 33.1105 15.8023 33.2613 15.7658 33.3963C15.6816 33.7078 15.6826 34.0174 15.7688 34.3831C15.8608 34.7734 16.0331 35.0778 16.3301 35.3747C17.3754 36.4196 19.0924 36.1131 19.7316 34.7674C19.8766 34.4623 19.8972 34.3741 19.914 33.9894C19.9272 33.6858 19.9129 33.4913 19.8663 33.3419L19.7999 33.1284H22.1494H24.499L24.4382 33.363C24.211 34.2383 24.6118 35.2207 25.3857 35.6858C27.067 36.6961 29.0939 35.0951 28.4953 33.2296C28.4629 33.1287 28.4642 33.1284 28.9759 33.1284C29.4229 33.1284 29.5138 33.1153 29.6823 33.0262C30.1326 32.7882 30.166 32.1605 29.7432 31.8835C29.6258 31.8066 29.2841 31.8013 23.0304 31.78L16.4413 31.7575L16.2201 31.6555C15.7169 31.4235 15.3722 30.9703 15.3124 30.462L15.2826 30.2082L21.9544 30.1963L28.6263 30.1843L28.9274 30.0636C29.7911 29.7174 30.4568 29.007 30.6887 28.1841C30.727 28.0481 31.0445 26.076 31.3941 23.8016C32.0872 19.2933 32.0851 19.3144 31.8812 18.7602C31.5922 17.975 30.934 17.4631 30.0688 17.3507C29.8852 17.3268 26.2615 17.3087 21.5109 17.3079C16.9792 17.3071 13.2715 17.2901 13.2715 17.27C13.2715 17.2498 13.1395 16.375 12.9781 15.3259C12.6701 13.3228 12.6654 13.3049 12.4 13.1066C12.2817 13.0183 12.211 13.0134 10.8965 13.0037C9.59315 12.9939 9.50781 12.9984 9.34896 13.0831ZM18.5771 20.8799V23.1049H16.3789H14.1808L14.1542 22.9588C14.1216 22.7788 13.4963 18.7109 13.4963 18.6784C13.4963 18.6655 14.6395 18.655 16.0367 18.655H18.5771V20.8799ZM24.3665 20.8912L24.3781 23.1049H22.152H19.926V20.9099C19.926 19.7026 19.9396 18.7012 19.9564 18.6845C19.9731 18.6678 20.9696 18.6594 22.1708 18.6658L24.3548 18.6774L24.3665 20.8912ZM30.2046 18.7538C30.4332 18.879 30.6177 19.1233 30.6509 19.3448C30.6721 19.4861 30.6073 20.0253 30.4278 21.2008C30.2886 22.1121 30.1636 22.9133 30.1501 22.9813L30.1254 23.1049H27.9258H25.7262V20.8779V18.6509L27.8956 18.6642C29.8364 18.676 30.0798 18.6855 30.2046 18.7538ZM18.5771 26.6558V28.8583H16.8244H15.0717L15.0483 28.7572C15.0194 28.6322 14.3955 24.5627 14.3955 24.4992C14.3955 24.4687 15.0944 24.4533 16.4863 24.4533H18.5771V26.6558ZM24.3773 26.6558V28.8583H22.1516H19.926V26.6558V24.4533H22.1516H24.3773V26.6558ZM29.9077 24.5129C29.9077 24.5456 29.7959 25.2966 29.6592 26.1818C29.4939 27.2523 29.379 27.8646 29.3162 28.0105C29.1934 28.2959 28.7741 28.6876 28.4865 28.7856C28.3096 28.8459 28.0549 28.8583 26.9996 28.8583H25.7262V26.6558V24.4533H27.8169C29.5224 24.4533 29.9077 24.4643 29.9077 24.5129ZM18.1569 33.2022C18.6652 33.4433 18.719 34.2258 18.2473 34.5172C17.929 34.7139 17.5955 34.6945 17.333 34.4641C17.0356 34.2032 16.9719 33.8719 17.1529 33.5288C17.341 33.1724 17.7878 33.0271 18.1569 33.2022ZM26.8538 33.2201C27.2775 33.4362 27.3812 34.0091 27.0623 34.3722C26.8062 34.6638 26.4895 34.7295 26.1444 34.5625C25.8621 34.4258 25.7086 34.1497 25.7354 33.8264C25.7819 33.2668 26.3458 32.961 26.8538 33.2201Z" fill="white"/>
<path d="M41 33.4915C41 34.0189 40.7363 34.294 40.2089 34.3166H37.3336L37.3251 37.2344C37.2854 37.7448 37.0132 38 36.5085 38C35.9584 38 35.6834 37.725 35.6834 37.1749L35.6919 37.1068H35.6834V34.3166H32.7826C32.2609 34.294 32 34.0189 32 33.4915C32 32.9924 32.2495 32.7202 32.7486 32.6749V32.6664H35.6834V29.7996C35.7004 29.2665 35.9754 29 36.5085 29C37.0586 29 37.3336 29.275 37.3336 29.8251V32.6664H40.2174L40.2344 32.6749C40.7448 32.7089 41 32.9811 41 33.4915Z" fill="white"/>
</svg>
