<svg width="32" height="21" viewBox="0 0 32 21" fill="none" xmlns="http://www.w3.org/2000/svg">
<path d="M1 0C0.447715 0 0 0.447715 0 1C0 1.55228 0.447715 2 1 2V0ZM31 2C31.5523 2 32 1.55228 32 1C32 0.447715 31.5523 0 31 0V2ZM1 2H31V0H1V2Z" fill="#DD4141"/>
<path d="M1 9.5C0.447715 9.5 0 9.94772 0 10.5C0 11.0523 0.447715 11.5 1 11.5V9.5ZM31 11.5C31.5523 11.5 32 11.0523 32 10.5C32 9.94772 31.5523 9.5 31 9.5V11.5ZM1 11.5H31V9.5H1V11.5Z" fill="#DD4141"/>
<path d="M1 19C0.447715 19 0 19.4477 0 20C0 20.5523 0.447715 21 1 21V19ZM31 21C31.5523 21 32 20.5523 32 20C32 19.4477 31.5523 19 31 19V21ZM1 21H31V19H1V21Z" fill="#DD4141"/>
</svg>
