<svg width="29" height="32" viewBox="0 0 29 32" fill="none" xmlns="http://www.w3.org/2000/svg">
<path fill-rule="evenodd" clip-rule="evenodd" d="M3.04103 0.0841892C2.6885 0.209441 2.43603 0.416881 2.24716 0.736386C2.07803 1.02251 2.07357 1.05533 2.05339 2.16772L2.03272 3.3063L2.19198 3.46461C2.39348 3.66499 2.63275 3.66686 2.83111 3.46955C2.9822 3.31936 2.98541 3.29505 2.98541 2.30853V1.30083L3.16912 1.11814C3.33184 0.956326 3.39645 0.935451 3.73477 0.935451H4.11672V7.18554V13.4356H3.55106H2.98541V9.1515V4.86732L2.83111 4.71394C2.74626 4.62956 2.60359 4.5605 2.51403 4.5605C2.42446 4.5605 2.28179 4.62956 2.19694 4.71394L2.04265 4.86732V7.1121V9.35682L1.75108 9.43801C1.37599 9.54244 0.781234 9.93795 0.535676 10.2463C0.430087 10.3788 0.266361 10.6515 0.171834 10.8521L0 11.2168V20.6545V30.0921L0.174536 30.4627C0.516695 31.1893 1.03873 31.6453 1.79696 31.8799C2.12121 31.9803 2.38053 31.9984 3.49795 31.9984C4.22306 31.9984 4.86716 31.9713 4.92931 31.9383C4.99141 31.9052 5.07664 31.7956 5.11868 31.6947C5.18191 31.5428 5.17776 31.4779 5.09474 31.3182C5.03949 31.2121 4.9312 31.1112 4.85408 31.0941C4.7769 31.0769 4.11986 31.0554 3.39394 31.0463L2.07407 31.0296L1.73795 30.8445C1.38963 30.6526 1.11497 30.3238 0.984178 29.9422C0.930441 29.7855 0.911335 27.6367 0.911335 21.7605C0.911335 14.1284 0.916048 13.7955 1.02302 13.8918C1.08449 13.9471 1.30365 14.0709 1.51011 14.1671L1.88552 14.3419L13.2407 14.3731L24.5959 14.4044L24.7581 14.5559L24.9203 14.7075V17.1966V19.6857H21.9265C19.8362 19.6857 18.8592 19.7076 18.6891 19.7583C18.3557 19.8576 17.9842 20.1893 17.808 20.5453C17.6617 20.8407 17.661 20.8523 17.661 23.2483C17.661 25.3202 17.675 25.6849 17.7615 25.8733C17.9233 26.2256 18.1988 26.5056 18.5384 26.6629L18.8552 26.8096L21.8877 26.8102L24.9203 26.8108L24.9183 28.764C24.9162 30.8167 24.9137 30.8357 24.6259 30.9882C24.5233 31.0425 22.207 31.0609 15.4739 31.0609H6.45916L6.29355 31.1904C6.06402 31.3699 6.06452 31.6897 6.29456 31.8696L6.46124 32L15.6486 31.9836L24.8359 31.9671L25.1435 31.778C25.3341 31.6608 25.5236 31.4724 25.6414 31.283L25.8316 30.9772L25.863 28.9096L25.8945 26.8421L26.4946 26.8069C26.9898 26.778 27.1684 26.7376 27.5154 26.5761C28.0601 26.3227 28.5131 25.8724 28.7735 25.3258L28.9742 24.9045L28.9924 22.3321C29.0101 19.8551 29.0059 19.7451 28.8783 19.3685C28.6403 18.666 28.1506 18.1157 27.505 17.8254C27.2339 17.7034 27.005 17.6577 26.523 17.6292L25.8945 17.5919L25.863 13.9669L25.8316 10.3418L25.6585 10.049C25.3639 9.55069 24.8863 9.31057 24.1896 9.31057H23.789V6.03852V2.76648L23.6476 2.55985C23.5697 2.44622 23.4263 2.29441 23.3287 2.22247C23.1528 2.09278 23.1109 2.09159 18.2939 2.07497L13.4364 2.05822L13.4028 1.56983C13.3648 1.01889 13.2311 0.702198 12.9054 0.391256C12.4833 -0.011687 12.6077 -0.00237444 7.707 0.000688099C4.24418 0.00281313 3.21827 0.0211884 3.04103 0.0841892ZM6.19079 7.18554V13.4356H5.62513H5.05948V7.18554V0.935451H5.62513H6.19079V7.18554ZM12.2681 1.08627L12.4444 1.23708L12.4611 7.33635L12.4777 13.4356H9.80564H7.13355V7.18554V0.935451H9.61263H12.0917L12.2681 1.08627ZM8.82957 2.20109C8.33067 2.45253 8.29629 2.57441 8.29629 4.09174C8.29629 5.60908 8.33067 5.73095 8.82957 5.9824C9.06948 6.10333 9.20574 6.12283 9.80231 6.12165C10.6371 6.12002 10.9297 6.01765 11.162 5.64602C11.3091 5.4107 11.3131 5.3692 11.3131 4.09174C11.3131 2.81429 11.3091 2.77279 11.162 2.53747C10.9297 2.16584 10.6371 2.06347 9.80231 2.06184C9.20574 2.06065 9.06948 2.08015 8.82957 2.20109ZM10.3704 4.09174V5.15426H9.8047H9.23905L9.2217 4.15675C9.21208 3.60811 9.21875 3.12186 9.23634 3.07617C9.26042 3.01379 9.40585 2.9976 9.81941 3.01117L10.3704 3.02923V4.09174ZM22.8462 8.2168V13.4356H22.2806H21.7149V9.56538V5.69508L21.5557 5.50695C21.4681 5.40351 21.3026 5.28801 21.1878 5.25039C20.9364 5.16782 20.7471 4.97813 20.6235 4.68463C20.573 4.56481 20.4563 4.39644 20.3641 4.3105L20.1964 4.15424H18.1324H16.0685L15.8987 4.3105C15.8053 4.39644 15.6795 4.57925 15.619 4.71675C15.4933 5.00257 15.3596 5.13076 15.0672 5.24582C14.9541 5.29032 14.7915 5.40964 14.7058 5.51089L14.5499 5.69508V9.56538V13.4356H13.9843H13.4186V8.2168V2.99798H18.1324H22.8462V8.2168ZM19.826 5.23995C19.9238 5.4747 20.3532 5.90314 20.5874 5.99958L20.7721 6.07571V9.75563V13.4356H18.1324H15.4927V9.75563V6.07571L15.6789 5.99902C15.8961 5.90952 16.4005 5.39357 16.4634 5.19638C16.5065 5.06151 16.5187 5.06051 18.129 5.06051H19.7513L19.826 5.23995ZM17.9731 6.24559C17.7397 6.33859 17.672 6.49253 17.6426 6.99716C17.607 7.60823 17.6592 7.89986 17.8329 8.0608C18.0056 8.2208 18.1982 8.21918 18.4068 8.05599C18.5689 7.92917 18.5724 7.91111 18.5724 7.19066C18.5724 6.56822 18.5555 6.44009 18.4624 6.35884C18.3121 6.22765 18.1262 6.18459 17.9731 6.24559ZM17.7549 9.36894C17.2501 9.52169 16.8168 9.94295 16.6857 10.4084C16.3372 11.646 17.6289 12.7232 18.7862 12.1601C19.4729 11.826 19.7865 11.0963 19.5644 10.3491C19.4528 9.97339 18.9381 9.47901 18.56 9.38438C18.232 9.30225 17.9907 9.29763 17.7549 9.36894ZM18.5144 10.4308C18.6397 10.5555 18.6981 10.6761 18.6981 10.8106C18.6981 11.0905 18.4034 11.3731 18.1114 11.3731C17.8393 11.3731 17.5668 11.0868 17.5668 10.801C17.5668 10.542 17.8674 10.2481 18.1324 10.2481C18.2677 10.2481 18.389 10.3061 18.5144 10.4308ZM24.7269 10.4099L24.9203 10.5717V12.0596V13.5474L24.6846 13.4931C24.555 13.4631 24.3004 13.4379 24.1189 13.4371L23.789 13.4356V11.8419V10.2481H24.1612C24.4701 10.2481 24.5665 10.2756 24.7269 10.4099ZM2.02882 12.5852L2.01122 13.367L1.79577 13.2631C1.53242 13.1361 1.19963 12.8129 1.06431 12.5526C0.921579 12.2781 0.879281 11.7415 0.973934 11.4053C1.0679 11.0715 1.45851 10.6051 1.78288 10.4395L2.01122 10.3228L2.02882 11.0631C2.0385 11.4702 2.0385 12.1552 2.02882 12.5852ZM27.1903 18.7353C27.5722 18.9336 27.9009 19.32 28.0004 19.6873C28.0435 19.8466 28.0608 20.7793 28.0492 22.3271L28.0314 24.7207L27.8708 25.0308C27.6901 25.3798 27.2955 25.7113 26.9456 25.8079C26.7961 25.8492 25.3145 25.8727 22.8445 25.8729C18.5443 25.8734 18.7625 25.8953 18.638 25.4496C18.5516 25.1402 18.5516 21.3563 18.638 21.0469C18.7618 20.6036 18.5841 20.6232 22.4801 20.6232C24.9495 20.6232 26.0288 20.6024 26.1386 20.5526C26.5114 20.3837 26.4781 19.8771 26.0834 19.7131L25.863 19.6215V19.0911V18.5607H26.3587C26.7791 18.5607 26.9053 18.5872 27.1903 18.7353ZM20.7121 21.8468C20.0729 22.1226 19.7345 22.6636 19.7778 23.3406C19.8751 24.8599 21.9026 25.2679 22.6098 23.9105C22.7944 23.5562 22.7937 22.939 22.6083 22.5831C22.2542 21.9032 21.3737 21.5614 20.7121 21.8468ZM21.6172 22.8264C21.8386 23.0201 21.8772 23.2913 21.7193 23.5434C21.4237 24.0153 20.7093 23.8066 20.7093 23.2484C20.7093 22.7614 21.2537 22.5083 21.6172 22.8264ZM3.56621 27.0605C3.17572 27.2972 3.11161 27.4901 3.11136 28.4285C3.11104 29.4025 3.18156 29.5876 3.6361 29.8064C3.88832 29.9278 4.01352 29.9358 5.65122 29.9358C7.60223 29.9358 7.68632 29.9206 8.00127 29.5101C8.16619 29.2953 8.17058 29.267 8.17058 28.4299C8.17058 27.4754 8.13401 27.3703 7.69983 27.0764C7.49588 26.9384 7.45767 26.9358 5.63154 26.9361C3.88593 26.9362 3.75841 26.9439 3.56621 27.0605ZM7.25925 28.4358V28.9983H5.65656H4.05387V28.4358V27.8733H5.65656H7.25925V28.4358Z" fill="#DD4141"/>
</svg>
