<svg width="60" height="60" viewBox="0 0 60 60" fill="none" xmlns="http://www.w3.org/2000/svg">
<path fill-rule="evenodd" clip-rule="evenodd" d="M50.1388 0.274583C48.8984 0.848929 47.9797 2.36325 47.6597 4.36133L47.5897 4.79798L46.7972 4.4947C42.0398 2.67416 37.0304 3.23678 32.7169 6.07629C30.6452 7.44014 28.4144 10.0346 27.356 12.3111C25.5863 16.1177 25.4445 20.5233 26.9735 24.1985L27.2661 24.9016L26.9501 24.9788C26.7763 25.0213 26.3417 25.1212 25.9844 25.2008C23.9851 25.6467 22.4456 27.1002 22.4422 28.5454C22.4405 29.2374 22.8744 29.9678 23.5684 30.4415L24.1537 30.8409L24.2406 31.6658C24.4807 33.945 26.138 35.4499 28.4966 35.5302C28.8582 35.5426 28.9843 35.6133 29.168 35.9072C30.0856 37.375 31.4593 37.6747 32.8664 36.7141C33.7273 36.1264 34.482 34.6702 34.8083 32.9673L34.9021 32.4783L35.6107 32.7683C37.15 33.3982 39.6071 33.8683 41.3393 33.8642C42.4282 33.8616 44.289 33.578 45.5323 33.2251C46.964 32.8188 49.2291 31.6909 50.4439 30.7794C55.3726 27.0811 57.5892 20.7393 56.0326 14.7902C55.8761 14.1918 55.6217 13.3938 55.4673 13.0168L55.1865 12.3314L56.0603 12.1916C57.7347 11.9236 59.3875 10.8177 59.8294 9.66979C60.2539 8.56703 59.8757 7.50412 58.8131 6.81411L58.2622 6.45622L58.204 5.64819C58.0508 3.52472 56.4622 1.97629 54.2429 1.78738C53.5742 1.73043 53.4827 1.69 53.2767 1.35976C52.767 0.542478 51.9015 -0.00233626 51.117 7.53255e-06C50.9038 0.00059348 50.4636 0.124228 50.1388 0.274583ZM51.5295 1.96176C51.6322 2.0745 51.822 2.41118 51.951 2.70978C52.2862 3.48569 52.5193 3.61167 53.4917 3.54265C54.4503 3.47456 55.0186 3.63406 55.5892 4.13106C56.2652 4.71993 56.4579 5.22807 56.4579 6.42141C56.4579 7.58499 56.5098 7.67897 57.3394 8.01917C58.3963 8.45242 58.4941 8.88872 57.6916 9.58963C57.0315 10.1661 56.3184 10.4251 55.1565 10.5104L54.2686 10.5757L53.6272 9.71995C52.6636 8.43438 51.7156 7.47905 50.4663 6.53508L49.3413 5.68499L49.4041 4.86349C49.5532 2.91662 50.8213 1.18526 51.5295 1.96176ZM43.8327 5.4601C45.7229 5.8105 47.717 6.67747 49.2293 7.80624L49.7371 8.18523L48.2734 8.87993C46.4829 9.72979 46.1078 10.1712 46.5927 10.858C46.9419 11.3529 47.2836 11.309 48.882 10.5641C49.7032 10.1813 50.57 9.80069 50.8085 9.71819C51.2309 9.57193 51.2505 9.57815 51.574 9.9596C52.5209 11.0762 53.3782 12.5214 53.8494 13.7956C54.2415 14.856 54.6086 16.1699 54.5334 16.2445C54.507 16.2706 53.9859 16.162 53.3751 16.0031C50.0744 15.1443 46.5863 15.3637 43.3614 16.6326C43.0119 16.7702 42.7019 16.8588 42.6723 16.8296C42.5899 16.7478 43.0375 15.8049 43.4977 15.0911C43.7252 14.7384 44.2362 14.0753 44.6333 13.6176C45.4324 12.6962 45.5305 12.3282 45.0984 11.8718C44.7379 11.4911 44.2703 11.5238 43.7635 11.9654C43.1279 12.5191 41.9718 14.1012 41.449 15.1327C41.1924 15.6393 40.9588 16.0538 40.9301 16.0538C40.8399 16.0538 40.1948 13.9234 40.025 13.0655C39.9304 12.587 39.8639 11.5127 39.8655 10.4873C39.8684 8.56352 40.0557 7.39959 40.5947 5.95675L40.9035 5.13045L41.9186 5.2119C42.477 5.25678 43.3384 5.36846 43.8327 5.4601ZM38.8589 5.44967C38.8589 5.48272 38.7508 5.89136 38.6188 6.35789C37.7292 9.49881 37.9005 13.0786 39.0904 16.2231C39.2842 16.7353 39.4183 17.1786 39.3883 17.2082C39.2953 17.3005 38.3701 16.8419 37.4527 16.2487C36.3448 15.5324 34.9671 14.1521 34.1557 12.9451C33.5185 11.9974 32.5149 10.0366 32.2483 9.21861C32.1142 8.80716 32.1241 8.74692 32.3697 8.48758C32.5169 8.33219 33.0139 7.94745 33.4744 7.63257C34.8364 6.70126 36.2608 6.05379 37.914 5.61468C38.8017 5.37889 38.8589 5.36881 38.8589 5.44967ZM30.8271 10.4411C30.8271 10.6239 31.9292 12.7631 32.3973 13.4888C33.8466 15.7358 35.7719 17.506 37.8932 18.5422L38.6625 18.9179L38.1573 19.1365C37.8795 19.2567 37.1397 19.4912 36.5134 19.6576C35.4861 19.9306 35.1605 19.9606 33.1894 19.9631C30.8738 19.9663 30.2045 19.8708 28.5239 19.2977L27.6971 19.0158L27.7269 17.9742C27.7948 15.5923 28.5659 13.2956 30.0319 11.1095C30.5702 10.3065 30.8271 10.0906 30.8271 10.4411ZM52.0877 17.5041C53.0506 17.697 54.4103 18.0988 54.6745 18.2685C54.807 18.3535 54.8235 18.5908 54.7574 19.4602C54.6159 21.3184 54.1263 23.1383 53.3565 24.6672C52.8785 25.6166 51.8354 27.1023 51.7279 26.9869C51.6803 26.9357 51.4711 26.5049 51.2631 26.0295C49.843 22.7833 47.498 20.2197 44.6529 18.803C44.1947 18.5748 43.8197 18.3663 43.8197 18.3397C43.8197 18.2341 46.058 17.5947 46.8907 17.4624C47.3779 17.3851 47.8562 17.3027 47.9537 17.2795C48.3611 17.1821 51.2693 17.3402 52.0877 17.5041ZM44.2632 20.5839C46.784 21.9624 48.8809 24.5836 50.1751 27.9741L50.4086 28.5856L49.9193 28.9809C48.7592 29.918 47.4575 30.6768 46.1644 31.1697C45.4956 31.4246 43.6963 31.9107 43.6423 31.8511C43.6248 31.8316 43.7352 31.3279 43.8878 30.7318C44.0404 30.1355 44.2273 29.1863 44.3031 28.6224C44.4743 27.3484 44.3837 24.876 44.1195 23.6125C43.9528 22.816 43.3729 20.9799 43.051 20.2299C42.97 20.0409 42.9958 20.0227 43.2408 20.0956C43.3967 20.142 43.8569 20.3617 44.2632 20.5839ZM39.429 21.3527C38.5207 23.0848 36.9787 24.7377 35.2315 25.852C34.5491 26.2872 32.626 27.2248 31.6924 27.5775L31.1995 27.7637L30.5496 26.9186C29.3782 25.3956 28.5688 23.7496 28.1036 21.945C27.9773 21.4551 27.8873 21.0412 27.9037 21.0252C27.92 21.0093 28.3927 21.118 28.9541 21.267C30.5749 21.6968 31.9365 21.8369 33.749 21.7602C35.6272 21.6809 36.6344 21.4889 38.4455 20.865C39.1601 20.6189 39.7873 20.4113 39.8394 20.4037C39.8913 20.396 39.7067 20.8231 39.429 21.3527ZM41.9738 22.406C42.8721 25.1362 42.8412 28.5442 41.8935 31.2682L41.6213 32.0502L40.624 32.0402C38.2838 32.0169 35.7967 31.2058 33.6046 29.751L32.6972 29.1489L34.1576 28.4316C34.9609 28.037 36.0113 27.4505 36.4919 27.1282C38.3771 25.8642 40.1949 23.8484 41.0612 22.0613C41.5441 21.0654 41.5311 21.0605 41.9738 22.406ZM7.26108 25.9439C6.88406 26.1068 6.20218 26.8088 6.00611 27.2356C5.90005 27.4665 5.81914 27.4854 5.12427 27.4416C4.16306 27.3809 3.45662 27.6306 2.74238 28.2838C1.94983 29.0086 1.72967 29.5253 1.72648 30.6688C1.72388 31.5998 1.71349 31.6352 1.40852 31.7605C0.739044 32.0357 -0.00176854 33.095 3.1717e-06 33.775C0.00142054 34.3613 0.271194 34.9412 0.819716 35.5367C1.70546 36.4981 2.9903 37.1031 4.74123 37.383L5.60972 37.5219L5.56956 38.8053C5.50814 40.7696 5.9343 42.2709 6.98753 43.8015C7.42833 44.442 13.7036 50.7723 15.3315 52.2185C17.2592 53.931 18.9716 54.5673 21.3865 54.4687L22.669 54.4162L22.7366 54.9522C22.9437 56.5924 23.6426 58.2623 24.4624 59.0757C25.2642 59.8712 26.294 60.1892 27.0927 59.888C27.5255 59.7246 28.2963 58.9975 28.4651 58.5929C28.6072 58.2527 28.6277 58.2452 29.2274 58.3152C30.2606 58.4356 31.1111 58.1195 31.8964 57.3228C32.6629 56.5454 32.8913 55.9292 32.8127 54.8519C32.764 54.1818 32.7758 54.1448 33.0768 54.0209C33.4892 53.8514 34.2051 53.115 34.3635 52.6972C35.0925 50.7757 32.8424 48.7074 29.5893 48.3085L28.8828 48.222L28.9397 47.6948C29.1351 45.878 28.848 44.3216 28.021 42.7144C27.6447 41.9833 27.0907 41.3893 22.9234 37.2494C18.333 32.6893 18.2296 32.5961 17.244 32.123C16.6918 31.858 15.8945 31.5549 15.4723 31.4496C14.6998 31.2567 13.2179 31.1802 12.3438 31.2879L11.8729 31.346L11.7846 30.7019C11.4805 28.483 10.4754 26.6658 9.1874 26.0052C8.67904 25.7446 7.78787 25.7162 7.26108 25.9439ZM28.8084 27.5349C29.6988 28.7494 30.8702 29.9308 32.0501 30.8041L33.1002 31.5814L33.0362 32.4603C32.9527 33.6053 32.6534 34.384 32.058 35.0049C31.3463 35.7472 30.9515 35.6491 30.5246 34.624C30.1826 33.8029 30.0882 33.7514 28.9393 33.7603C27.8119 33.7691 27.3129 33.6213 26.7746 33.1195C26.2107 32.5938 25.9724 31.89 25.9954 30.8188C26.0181 29.7643 25.8788 29.4863 25.2606 29.3515C24.8196 29.2554 24.2127 28.7514 24.2127 28.4813C24.2127 27.69 26.0345 26.7455 27.5991 26.7258L28.2097 26.7181L28.8084 27.5349ZM8.84487 27.9518C9.51942 28.714 9.92585 29.8094 10.0829 31.2885L10.1513 31.933L9.6523 32.2138C8.34986 32.9467 7.05426 34.2425 6.52688 35.3398L6.31912 35.7719L5.43291 35.7024C3.85962 35.5789 2.3539 34.8864 1.89503 34.0753C1.73569 33.7935 1.73983 33.7435 1.94133 33.5226C2.06322 33.389 2.47568 33.1665 2.85813 33.0281C3.84769 32.6702 3.91419 32.4718 3.53127 31.022C3.4037 30.5391 3.41043 30.4067 3.57969 30.0543C3.80954 29.5763 4.40318 29.1801 4.89064 29.1795C5.07986 29.1793 5.51748 29.2675 5.8632 29.3757C6.68822 29.6336 6.97985 29.489 7.3225 28.6515C7.83145 27.4074 8.20942 27.2336 8.84487 27.9518ZM15.6428 33.344C16.382 33.5969 17.7904 34.4182 17.6773 34.5305C17.604 34.6032 14.6991 35.6098 13.2872 36.0517C12.1403 36.4107 9.00539 37.2253 7.94248 37.4404C7.48443 37.5331 7.46258 37.4277 7.79141 36.7089C8.39805 35.3831 9.47312 34.2865 10.8036 33.6368C11.325 33.3822 12.0174 33.1218 12.3422 33.0582C13.2028 32.8898 14.6928 33.0189 15.6428 33.344ZM23.1769 40.0893C23.0676 40.1872 19.7586 41.3329 17.8943 41.9181C16.7385 42.2809 16.4469 42.4183 16.3111 42.6639C16.0939 43.0569 16.218 43.5352 16.6021 43.785C16.8696 43.9589 16.973 43.9625 17.5747 43.8193C18.2374 43.6617 23.0152 42.0806 24.1383 41.6473L24.7135 41.4254L25.4095 42.1754C26.4771 43.3258 27.0021 44.3956 27.2037 45.8312L27.2629 46.2526L25.1768 46.9201C22.4351 47.7975 19.3585 48.5466 16.8758 48.9413L14.8676 49.2605L12.8657 47.2769C11.7647 46.1859 10.9118 45.2774 10.9703 45.258C11.0288 45.2387 11.7588 45.098 12.5922 44.9453C14.2245 44.6462 14.5274 44.4751 14.5274 43.8516C14.5274 43.4697 14.0973 43.0074 13.7422 43.0074C13.5928 43.0074 12.5258 43.1685 11.371 43.3657L9.27127 43.7238L8.81534 43.2192C8.04536 42.3669 7.32238 40.6655 7.32238 39.7059C7.32238 39.4305 7.38687 39.368 7.76531 39.2766C8.00898 39.2177 9.11181 38.9535 10.2162 38.6892C12.5616 38.128 15.3736 37.2693 17.5393 36.453L19.0748 35.8742L21.1689 37.9431C22.3208 39.081 23.2243 40.0468 23.1769 40.0893ZM26.6484 49.1696C26.1248 50.2634 24.8624 51.5682 23.8429 52.0694C22.0335 52.9589 19.9286 52.9679 18.1278 52.0937C17.5139 51.7957 16.42 50.9297 16.5353 50.8329C16.5678 50.8057 17.2587 50.6659 18.0708 50.5223C20.0708 50.1689 22.9446 49.4592 25.1576 48.7723C26.1646 48.4599 27.0086 48.2194 27.0332 48.2382C27.0577 48.2568 26.8846 48.676 26.6484 49.1696ZM30.2643 50.222C31.62 50.5474 32.7785 51.3609 32.6973 51.9305C32.667 52.1434 32.4628 52.3 31.8079 52.6127C30.7291 53.1281 30.5992 53.3444 30.8652 54.1819C31.1782 55.1669 31.1317 55.6195 30.6711 56.0765C30.1685 56.5751 29.5765 56.6964 28.8987 56.4396C27.8864 56.056 27.5381 56.2093 27.1692 57.2007C27.0346 57.5626 26.8156 57.9563 26.6826 58.0758C26.4629 58.273 26.4121 58.277 26.1284 58.119C25.3257 57.6719 24.6038 56.1063 24.483 54.55L24.4192 53.7291L24.8768 53.5126C25.9482 53.0058 27.2566 51.7139 27.9985 50.4308L28.28 49.9437L28.9335 50.0016C29.2928 50.0334 29.8918 50.1325 30.2643 50.222Z" fill="#DD4141"/>
</svg>
