<svg width="30" height="30" viewBox="0 0 30 30" fill="none" xmlns="http://www.w3.org/2000/svg">
<circle cx="15" cy="15" r="15" fill="#DD4141"/>
<path d="M14.4153 17.549C14.4153 17.0392 14.5027 16.5948 14.6774 16.2157C14.8522 15.8366 15.0672 15.4967 15.3226 15.1961C15.5914 14.8954 15.8804 14.6209 16.1895 14.3725C16.4987 14.1111 16.7876 13.8562 17.0565 13.6078C17.3253 13.3464 17.5403 13.0719 17.7016 12.7843C17.8763 12.4967 17.9637 12.1634 17.9637 11.7843C17.9637 11.1569 17.7083 10.6471 17.1976 10.2549C16.6868 9.86274 15.9812 9.66667 15.0806 9.66667C14.2742 9.66667 13.5753 9.79738 12.9839 10.0588C12.3925 10.3203 11.8884 10.7059 11.4718 11.2157L10 10.1961C10.5645 9.50327 11.2836 8.96732 12.1573 8.58823C13.0309 8.19608 14.0524 8 15.2218 8C16.1895 8 17.0296 8.14379 17.7419 8.43137C18.4543 8.70588 19.0054 9.10457 19.3952 9.62745C19.7984 10.1373 20 10.7582 20 11.4902C20 12.0392 19.9126 12.5098 19.7379 12.902C19.5632 13.2941 19.3414 13.6405 19.0726 13.9412C18.8038 14.2418 18.5148 14.5229 18.2056 14.7843C17.9099 15.0458 17.6277 15.3072 17.3589 15.5686C17.0901 15.8301 16.8683 16.1176 16.6935 16.4314C16.5188 16.7451 16.4315 17.1176 16.4315 17.549H14.4153ZM15.4435 22C15.0672 22 14.7513 21.8758 14.496 21.6274C14.254 21.3791 14.1331 21.085 14.1331 20.7451C14.1331 20.3791 14.254 20.0784 14.496 19.8431C14.7513 19.6078 15.0672 19.4902 15.4435 19.4902C15.8199 19.4902 16.129 19.6078 16.371 19.8431C16.6129 20.0784 16.7339 20.3791 16.7339 20.7451C16.7339 21.085 16.6129 21.3791 16.371 21.6274C16.129 21.8758 15.8199 22 15.4435 22Z" fill="white"/>
</svg>
