<svg width="110" height="34" viewBox="0 0 110 34" fill="none" xmlns="http://www.w3.org/2000/svg">
<rect width="110" height="34" fill="#DD4141"/>
<path d="M44.125 20C44.151 20.0833 44.1641 20.1615 44.1641 20.2344C44.1641 20.7448 43.9115 21 43.4062 21C42.974 21 42.724 20.7865 42.6562 20.3594H42.6484C42.3516 19.2604 41.8099 18.2734 41.0234 17.3984C40.4245 16.7266 40.0339 16.2943 39.8516 16.1016L39.7969 16.0469L39.7422 16.1094C38.6328 17.4948 37.7786 19.0052 37.1797 20.6406C37.0964 20.875 36.9323 20.9922 36.6875 20.9922C36.3385 20.9922 36.1641 20.8177 36.1641 20.4688C36.1641 20.3646 36.1927 20.2708 36.25 20.1875C37.2292 18.2448 38.224 16.6641 39.2344 15.4453C39.0625 15.237 38.9349 15.0833 38.8516 14.9844C38.5599 14.6302 38.2865 14.2734 38.0312 13.9141C37.6771 13.4141 37.3047 12.8385 36.9141 12.1875C36.4141 11.3594 36.1641 10.862 36.1641 10.6953V10.6719L36.1562 10.5547C36.1562 10.0443 36.4089 9.78906 36.9141 9.78906C37.3828 9.78906 37.6354 10.026 37.6719 10.5C37.7188 10.9896 37.9427 11.5417 38.3438 12.1562C38.7552 12.7812 39.3516 13.5312 40.1328 14.4062C41.2734 13.0312 42.1146 11.6328 42.6562 10.2109C42.7135 9.92969 42.8828 9.78906 43.1641 9.78906C43.513 9.78906 43.6875 9.96354 43.6875 10.3125C43.6875 10.4479 43.6432 10.5651 43.5547 10.6641C42.6536 12.3776 41.6901 13.8359 40.6641 15.0391C41.1484 15.5651 41.612 16.1094 42.0547 16.6719C42.4193 17.1406 42.776 17.6328 43.125 18.1484C43.6198 18.8828 43.9453 19.4792 44.1016 19.9375L44.1328 20.0312L44.125 20ZM46.5234 20.7578C46.388 20.9193 46.2188 21 46.0156 21C45.5677 21 45.3438 20.7734 45.3438 20.3203V10.4688C45.3438 10.0156 45.5677 9.78906 46.0156 9.78906C46.4635 9.78906 46.6875 10.0156 46.6875 10.4688V18.9297L52.7812 10.1484C52.8073 10.0964 52.8385 10.0495 52.875 10.0078L52.8906 9.99219C53.026 9.85677 53.1849 9.78906 53.3672 9.78906C53.8151 9.78906 54.0391 10.0156 54.0391 10.4688L54.0312 20.4141C53.9792 20.8047 53.7578 21 53.3672 21C52.9193 21 52.6953 20.7734 52.6953 20.3203V11.8438L46.5625 20.6953L46.5234 20.7578ZM63.3438 9.78906C63.8333 9.78906 64.0781 10.0391 64.0781 10.5391C64.0781 11.0391 63.8333 11.2891 63.3438 11.2891C63.2396 11.2891 63.1432 11.2682 63.0547 11.2266C62.6328 11.0026 62.2812 10.8516 62 10.7734C61.7292 10.7005 61.3333 10.651 60.8125 10.625C60.5938 10.651 60.4583 10.7005 60.4062 10.7734C60.3281 10.8776 60.2891 11.1641 60.2891 11.6328L60.2734 20.4141C60.2214 20.8047 60.0026 21 59.6172 21C59.1693 21 58.9453 20.7734 58.9453 20.3203V11.2812C58.9349 11.1146 58.9219 11 58.9062 10.9375C58.8594 10.7708 58.6875 10.6693 58.3906 10.6328C57.8854 10.6536 57.5 10.7005 57.2344 10.7734C56.9531 10.8516 56.6016 11.0026 56.1797 11.2266C56.0911 11.2682 55.9948 11.2891 55.8906 11.2891C55.401 11.2891 55.1562 11.0391 55.1562 10.5391C55.1562 10.0391 55.401 9.78906 55.8906 9.78906H63.3438ZM66.5938 16.9141C66.5677 17.2161 66.5339 17.4375 66.4922 17.5781C66.4505 17.7188 66.3646 17.7891 66.2344 17.7891C66.1406 17.7891 66.0703 17.7474 66.0234 17.6641C65.9766 17.5755 65.9479 17.4844 65.9375 17.3906C65.9271 17.2969 65.9089 17.1094 65.8828 16.8281L65.4062 10.0391C65.4062 9.2474 65.6823 8.85156 66.2344 8.85156C66.4948 8.85156 66.6953 8.9375 66.8359 9.10938C66.9766 9.28125 67.0469 9.61458 67.0469 10.1094L67.0078 10.9688L66.5938 16.9141ZM67.1797 20.1797C67.1797 20.7266 66.862 21 66.2266 21C65.5911 21 65.2734 20.7266 65.2734 20.1797C65.2734 19.6276 65.5911 19.3516 66.2266 19.3516C66.862 19.3516 67.1797 19.6276 67.1797 20.1797Z" fill="white"/>
</svg>
