<svg width="10" height="10" viewBox="0 0 10 10" fill="none" xmlns="http://www.w3.org/2000/svg">
<circle cx="5" cy="5" r="5" fill="#E8E8E8"/>
<path d="M4.3246 5.72829C4.3246 5.58263 4.35081 5.45565 4.40323 5.34734C4.45565 5.23903 4.52016 5.14192 4.59677 5.05602C4.67742 4.97012 4.76411 4.89169 4.85685 4.82073C4.9496 4.74603 5.03629 4.6732 5.11694 4.60224C5.19758 4.52754 5.2621 4.44911 5.31048 4.36695C5.3629 4.28478 5.38911 4.18954 5.38911 4.08123C5.38911 3.90196 5.3125 3.7563 5.15927 3.64426C5.00605 3.53221 4.79435 3.47619 4.52419 3.47619C4.28226 3.47619 4.07258 3.51354 3.89516 3.58824C3.71774 3.66293 3.56653 3.77311 3.44153 3.91877L3 3.62745C3.16935 3.4295 3.38508 3.27638 3.64718 3.16807C3.90927 3.05602 4.21573 3 4.56653 3C4.85685 3 5.10887 3.04108 5.32258 3.12325C5.53629 3.20168 5.70161 3.31559 5.81855 3.46499C5.93952 3.61064 6 3.78805 6 3.9972C6 4.15406 5.97379 4.28851 5.92137 4.40056C5.86895 4.5126 5.80242 4.61158 5.72177 4.69748C5.64113 4.78338 5.55444 4.86368 5.46169 4.93838C5.37298 5.01307 5.28831 5.08777 5.20766 5.16246C5.12702 5.23716 5.06048 5.31933 5.00806 5.40896C4.95565 5.4986 4.92944 5.60504 4.92944 5.72829H4.3246ZM4.63306 7C4.52016 7 4.4254 6.96452 4.34879 6.89356C4.27621 6.8226 4.23992 6.73856 4.23992 6.64146C4.23992 6.53688 4.27621 6.45098 4.34879 6.38375C4.4254 6.31653 4.52016 6.28291 4.63306 6.28291C4.74597 6.28291 4.83871 6.31653 4.91129 6.38375C4.98387 6.45098 5.02016 6.53688 5.02016 6.64146C5.02016 6.73856 4.98387 6.8226 4.91129 6.89356C4.83871 6.96452 4.74597 7 4.63306 7Z" fill="#474747"/>
</svg>
