<svg width="12" height="13" viewBox="0 0 12 13" fill="none" xmlns="http://www.w3.org/2000/svg">
<path fill-rule="evenodd" clip-rule="evenodd" d="M2.13194 0.526453C1.93931 0.575019 1.74456 0.684117 1.54536 0.855085C1.32447 1.04466 0.529438 1.84959 0.400028 2.01469C-0.124485 2.68381 -0.133291 3.72427 0.374175 5.06583C0.994144 6.70477 2.15563 8.3662 3.62443 9.71517C5.65004 11.5755 8.36064 12.7811 9.75818 12.4433C9.96515 12.3933 10.3093 12.2334 10.4674 12.1138C10.6261 11.9938 11.6914 10.9048 11.7903 10.7615C11.9731 10.4965 12.0437 10.1419 11.973 9.84276C11.894 9.50831 11.868 9.47633 10.8425 8.45447C9.80845 7.42413 9.77675 7.39875 9.43432 7.32677C9.16472 7.27008 8.88925 7.32006 8.62276 7.47397C8.56062 7.50986 8.26905 7.77602 7.97479 8.06544L7.4398 8.59165L7.26841 8.50287C6.84743 8.28479 6.53685 8.07534 6.07276 7.69648C5.59619 7.30743 4.93197 6.62345 4.56529 6.14414C4.3004 5.79789 3.90805 5.15806 3.90692 5.07048C3.90671 5.05368 4.09011 4.86155 4.31448 4.64354C4.78469 4.18664 4.97106 3.9729 5.0761 3.77012C5.20881 3.51389 5.23421 3.19124 5.14281 2.923C5.04996 2.65047 4.96228 2.54723 4.06176 1.65016C3.1715 0.763349 3.03491 0.646766 2.78217 0.557939C2.60428 0.495436 2.31134 0.481242 2.13194 0.526453ZM2.67734 1.18414C2.74426 1.22226 3.11963 1.578 3.62597 2.08313C4.54278 2.99782 4.57688 3.04087 4.57567 3.28272C4.57459 3.49726 4.51926 3.57135 3.90364 4.18272C3.59361 4.49059 3.32328 4.77462 3.30291 4.81387C3.2764 4.86495 3.26846 4.93099 3.27496 5.04591C3.28309 5.18898 3.30176 5.24151 3.44563 5.5259C3.7704 6.16779 4.19858 6.73337 4.90687 7.456C5.61194 8.17532 6.31338 8.7106 7.03535 9.08027C7.29334 9.21238 7.34206 9.22946 7.45918 9.22873C7.53976 9.22824 7.6237 9.21123 7.6739 9.18526C7.71922 9.16177 8.01065 8.89109 8.32151 8.58374C8.72278 8.187 8.91744 8.01104 8.99257 7.97706C9.13378 7.91325 9.31789 7.91343 9.44668 7.97753C9.58928 8.0485 11.2521 9.7037 11.3265 9.84877C11.367 9.9276 11.3824 9.9965 11.3824 10.0984C11.3824 10.339 11.3336 10.4053 10.6645 11.0744C10.0018 11.7369 9.94031 11.7818 9.58747 11.86C9.24763 11.9354 8.67529 11.8754 8.09521 11.7037C7.21322 11.4426 6.02506 10.8177 5.0485 10.1014C3.16618 8.72057 1.55094 6.61305 0.880322 4.66282C0.561602 3.73593 0.526212 3.07168 0.769279 2.57886C0.846675 2.42192 0.915524 2.34286 1.40578 1.84774C1.70811 1.54238 1.99657 1.26419 2.0468 1.22951C2.25737 1.0841 2.47432 1.0685 2.67734 1.18414Z" fill="#474747"/>
</svg>
