<svg width="155" height="39" viewBox="0 0 155 39" fill="none" xmlns="http://www.w3.org/2000/svg">
<rect width="155" height="32" rx="16" fill="#DD4141"/>
<path d="M46.4834 18.0777C47.2251 18.0777 47.7897 17.7916 48.1772 17.2194C48.5133 16.7169 48.6813 16.0584 48.6813 15.2441C48.6813 14.3722 48.4875 13.6805 48.1 13.1688C47.7095 12.6542 47.1843 12.3969 46.5243 12.3969C46.0066 12.3969 45.5752 12.5407 45.2301 12.8283C44.9213 13.0856 44.6913 13.4398 44.5399 13.8909C44.4037 14.2935 44.3355 14.7446 44.3355 15.2441C44.3355 16.0978 44.5323 16.7835 44.9259 17.3012C45.3164 17.8188 45.8356 18.0777 46.4834 18.0777ZM46.4834 11.9155C47.3917 11.9155 48.1333 12.2243 48.7085 12.8419C49.2837 13.4595 49.5713 14.2602 49.5713 15.2441C49.5713 16.2189 49.2853 17.0166 48.7131 17.6372C48.1409 18.2578 47.4053 18.5681 46.5062 18.5681C45.6131 18.5681 44.879 18.2563 44.3038 17.6327C43.7286 17.009 43.441 16.2128 43.441 15.2441C43.441 14.2723 43.7255 13.4746 44.2947 12.851C44.8638 12.2273 45.5934 11.9155 46.4834 11.9155ZM54.185 17.4102C54.185 17.613 54.0215 17.8416 53.6946 18.0958C53.3101 18.3956 52.8696 18.5454 52.3731 18.5454C51.7646 18.5454 51.2591 18.335 50.8564 17.9142C50.4538 17.4934 50.2525 16.9621 50.2525 16.3203C50.2525 15.6089 50.4705 15.011 50.9064 14.5266C51.3454 14.0422 51.8888 13.8 52.5366 13.8C52.9393 13.8 53.2889 13.8878 53.5856 14.0634C53.8792 14.239 54.0261 14.4464 54.0261 14.6855C54.0261 14.7915 53.9867 14.8823 53.908 14.958C53.8293 15.0337 53.7354 15.0715 53.6265 15.0715C53.4812 15.0715 53.357 15.008 53.2541 14.8808C53.1239 14.6961 53.0376 14.5826 52.9953 14.5402C52.859 14.3919 52.685 14.3177 52.473 14.3177C52.1188 14.3177 51.8328 14.4252 51.6148 14.6401C51.4301 14.8248 51.2954 15.0791 51.2106 15.403C51.144 15.6664 51.1107 15.9601 51.1107 16.284C51.1107 16.7714 51.2409 17.1725 51.5013 17.4874C51.7646 17.7992 52.1037 17.9551 52.5185 17.9551C52.6971 17.9551 52.8863 17.9188 53.0861 17.8461C53.2829 17.7734 53.4297 17.6872 53.5266 17.5873C53.5871 17.5237 53.6552 17.4541 53.7309 17.3784C53.849 17.2694 53.9353 17.2149 53.9897 17.2149L54.0987 17.2285C54.1562 17.2588 54.185 17.3193 54.185 17.4102ZM58.054 13.8455C58.2235 13.8667 58.3083 13.962 58.3083 14.1315C58.3083 14.3223 58.2114 14.4176 58.0176 14.4176C57.9752 14.4176 57.9344 14.4085 57.895 14.3904C57.895 14.3692 57.8133 14.3283 57.6498 14.2678C57.5741 14.2375 57.4273 14.2224 57.2093 14.2224L56.8733 14.2405C56.837 14.2496 56.8188 14.2708 56.8188 14.3041V18.114C56.8188 18.3713 56.6932 18.5 56.4419 18.5C56.1937 18.5 56.0695 18.3713 56.0695 18.114V14.3041C56.0695 14.2708 56.0514 14.2496 56.015 14.2405L55.6835 14.2224C55.4656 14.2224 55.3187 14.2375 55.2431 14.2678C55.0796 14.3313 54.9979 14.3722 54.9979 14.3904C54.9585 14.4085 54.9176 14.4176 54.8752 14.4176C54.6815 14.4176 54.5846 14.3223 54.5846 14.1315C54.5846 13.962 54.6694 13.8667 54.8389 13.8455H58.054ZM61.3644 17.6872C61.7155 17.4268 61.8911 17.0121 61.8911 16.4429L61.8729 15.9025C61.6883 15.8874 61.5142 15.8798 61.3507 15.8798C60.7695 15.8798 60.3214 15.9797 60.0066 16.1795C59.6615 16.4036 59.4889 16.7154 59.4889 17.115C59.4889 17.3632 59.5767 17.5676 59.7523 17.728C59.9249 17.8854 60.1504 17.9642 60.4289 17.9642C60.8043 17.9642 61.1161 17.8718 61.3644 17.6872ZM62.1182 14.3904C62.4603 14.7537 62.6313 15.3364 62.6313 16.1387V18.0277C62.6313 18.2608 62.5147 18.3774 62.2816 18.3774L62.2044 18.3683C61.9986 18.338 61.8941 18.2185 61.8911 18.0096V17.6872C61.658 17.9475 61.4264 18.1397 61.1963 18.2639C60.8966 18.4213 60.5545 18.5 60.1701 18.5C59.7341 18.5 59.3693 18.3744 59.0757 18.1231C58.7851 17.8688 58.6397 17.554 58.6397 17.1786C58.6397 16.5943 58.8698 16.1568 59.33 15.8662C59.8416 15.5393 60.6575 15.3758 61.7776 15.3758C61.7261 15.0519 61.5838 14.796 61.3507 14.6083C61.1207 14.4176 60.8285 14.3223 60.4743 14.3223C60.3381 14.3223 60.223 14.3389 60.1292 14.3722C60.0323 14.4025 59.8855 14.4721 59.6887 14.5811C59.5252 14.6689 59.4163 14.7234 59.3618 14.7446C59.3073 14.7658 59.2467 14.7764 59.1801 14.7764C59.1044 14.7764 59.0484 14.7658 59.0121 14.7446C58.9425 14.7052 58.9077 14.6311 58.9077 14.5221C58.9077 14.3132 59.0454 14.1482 59.3209 14.0271C59.5964 13.906 59.9687 13.8455 60.438 13.8455C61.216 13.8455 61.7761 14.0271 62.1182 14.3904ZM66.8544 17.1695C66.8544 16.9212 66.7303 16.7184 66.4821 16.561C66.0885 16.3188 65.3574 16.1977 64.2888 16.1977V17.7099C64.3766 17.9369 64.6642 18.0504 65.1516 18.0504C65.6904 18.0504 66.1173 17.9657 66.4321 17.7961C66.7137 17.6448 66.8544 17.4359 66.8544 17.1695ZM65.1334 14.2814C64.6581 14.2814 64.3766 14.3858 64.2888 14.5947V15.6891C65.2575 15.6891 65.8796 15.5862 66.1551 15.3803C66.3095 15.2623 66.3867 15.0882 66.3867 14.8581C66.3867 14.6916 66.3004 14.5599 66.1279 14.463C65.9129 14.3419 65.5814 14.2814 65.1334 14.2814ZM67.6037 17.1559C67.6037 17.6705 67.3464 18.0414 66.8317 18.2684C66.4836 18.4228 66.0598 18.5 65.5603 18.5H63.9437C63.6954 18.5 63.5713 18.3759 63.5713 18.1276V14.2133C63.5713 13.9681 63.6954 13.8455 63.9437 13.8455H65.3695C65.8569 13.8485 66.2596 13.9211 66.5774 14.0634C66.9861 14.2451 67.1905 14.5281 67.1905 14.9126C67.1905 15.2607 67.0028 15.5362 66.6274 15.7391C66.4821 15.8178 66.3216 15.8768 66.146 15.9162C66.5214 15.9828 66.8287 16.0933 67.0679 16.2477C67.4251 16.4747 67.6037 16.7774 67.6037 17.1559ZM72.0857 18.1276C72.0857 18.3759 71.9601 18.5 71.7088 18.5C71.4575 18.5 71.3319 18.3759 71.3319 18.1276V14.849L69.0705 18.2957C69.0008 18.4319 68.8903 18.5 68.739 18.5C68.4877 18.5 68.3621 18.3759 68.3621 18.1276V14.2178C68.3621 13.9696 68.4877 13.8455 68.739 13.8455C68.9872 13.8455 69.1128 13.9696 69.1159 14.2178V17.4828L71.3864 14.0271L71.4091 13.9953C71.4848 13.8954 71.5847 13.8455 71.7088 13.8455C71.9601 13.8455 72.0857 13.9696 72.0857 14.2178V18.1276ZM76.1908 13.8455C76.3603 13.8667 76.4451 13.962 76.4451 14.1315C76.4451 14.3223 76.3482 14.4176 76.1544 14.4176C76.1121 14.4176 76.0712 14.4085 76.0318 14.3904C76.0318 14.3692 75.9501 14.3283 75.7866 14.2678C75.7109 14.2375 75.5641 14.2224 75.3461 14.2224L75.0101 14.2405C74.9738 14.2496 74.9556 14.2708 74.9556 14.3041V18.114C74.9556 18.3713 74.83 18.5 74.5787 18.5C74.3305 18.5 74.2063 18.3713 74.2063 18.114V14.3041C74.2063 14.2708 74.1882 14.2496 74.1519 14.2405L73.8204 14.2224C73.6024 14.2224 73.4556 14.2375 73.3799 14.2678C73.2164 14.3313 73.1347 14.3722 73.1347 14.3904C73.0953 14.4085 73.0544 14.4176 73.0121 14.4176C72.8183 14.4176 72.7214 14.3223 72.7214 14.1315C72.7214 13.962 72.8062 13.8667 72.9757 13.8455H76.1908ZM79.651 17.7961C79.9083 17.6448 80.037 17.4359 80.037 17.1695C80.037 16.779 79.8296 16.4792 79.4149 16.2704C79.0304 16.0796 78.49 15.9843 77.7937 15.9843V17.7099C77.8543 17.9369 78.0783 18.0504 78.4658 18.0504C78.9623 18.0504 79.3574 17.9657 79.651 17.7961ZM77.7937 15.5438C78.7655 15.5438 79.5012 15.6861 80.0007 15.9707C80.4851 16.2431 80.7272 16.6382 80.7272 17.1559C80.7272 17.6705 80.4896 18.0414 80.0143 18.2684C79.6934 18.4228 79.3044 18.5 78.8473 18.5H77.3533C77.1202 18.5 77.0036 18.3759 77.0036 18.1276V14.2178C77.0036 13.9696 77.1338 13.8455 77.3941 13.8455C77.6545 13.8455 77.7847 13.9696 77.7847 14.2178L77.7937 15.5438ZM86.458 15.9298C87.0816 16.0872 87.3935 16.4914 87.3935 17.1422C87.3935 17.3965 87.3117 17.6357 87.1482 17.8597C87.0211 18.0323 86.791 18.1942 86.458 18.3456C86.1674 18.4788 85.8419 18.5454 85.4817 18.5454C85.0942 18.5454 84.7657 18.4849 84.4963 18.3638C83.9574 18.1246 83.6592 17.8385 83.6017 17.5055L83.5972 17.4056C83.6184 17.23 83.7198 17.1422 83.9014 17.1422C84.0588 17.1422 84.1572 17.2164 84.1966 17.3647C84.3086 17.5888 84.4766 17.7538 84.7006 17.8597C84.967 17.9899 85.2456 18.055 85.5362 18.055C85.845 18.055 86.0947 17.9702 86.2854 17.8007C86.5761 17.5403 86.7214 17.2966 86.7214 17.0696C86.7214 16.8425 86.5806 16.6321 86.2991 16.4384C86.069 16.281 85.7874 16.2022 85.4544 16.2022H84.8278C84.7127 16.2022 84.6234 16.1765 84.5599 16.125C84.5054 16.0796 84.4781 16.0297 84.4781 15.9752C84.4781 15.9146 84.5039 15.8632 84.5553 15.8208C84.6128 15.7724 84.6961 15.7481 84.8051 15.7481H85.4544C85.7208 15.7481 85.9388 15.68 86.1083 15.5438C86.2839 15.4045 86.3717 15.2184 86.3717 14.9853C86.3717 14.4948 86.0841 14.236 85.5089 14.2087H85.4317C85.017 14.2087 84.6719 14.348 84.3964 14.6265C84.3449 14.6901 84.2768 14.7219 84.192 14.7219C84.0134 14.7219 83.9241 14.6371 83.9241 14.4676C83.9241 14.3707 83.9695 14.2965 84.0603 14.2451C84.4448 13.9484 84.9065 13.8 85.4454 13.8C85.742 13.8 86.0236 13.85 86.29 13.9499C86.5564 14.0498 86.7713 14.1921 86.9348 14.3768C87.0953 14.5614 87.1755 14.7764 87.1755 15.0216C87.1755 15.2698 87.1089 15.4681 86.9757 15.6165C86.8425 15.7678 86.6699 15.8723 86.458 15.9298ZM90.7266 17.6872C91.0777 17.4268 91.2533 17.0121 91.2533 16.4429L91.2352 15.9025C91.0505 15.8874 90.8764 15.8798 90.7129 15.8798C90.1317 15.8798 89.6836 15.9797 89.3688 16.1795C89.0237 16.4036 88.8511 16.7154 88.8511 17.115C88.8511 17.3632 88.9389 17.5676 89.1145 17.728C89.2871 17.8854 89.5126 17.9642 89.7911 17.9642C90.1665 17.9642 90.4783 17.8718 90.7266 17.6872ZM91.4804 14.3904C91.8225 14.7537 91.9935 15.3364 91.9935 16.1387V18.0277C91.9935 18.2608 91.8769 18.3774 91.6438 18.3774L91.5666 18.3683C91.3608 18.338 91.2563 18.2185 91.2533 18.0096V17.6872C91.0202 17.9475 90.7886 18.1397 90.5585 18.2639C90.2588 18.4213 89.9167 18.5 89.5323 18.5C89.0963 18.5 88.7315 18.3744 88.4379 18.1231C88.1473 17.8688 88.002 17.554 88.002 17.1786C88.002 16.5943 88.232 16.1568 88.6922 15.8662C89.2038 15.5393 90.0197 15.3758 91.1398 15.3758C91.0883 15.0519 90.946 14.796 90.7129 14.6083C90.4829 14.4176 90.1907 14.3223 89.8365 14.3223C89.7003 14.3223 89.5853 14.3389 89.4914 14.3722C89.3945 14.4025 89.2477 14.4721 89.0509 14.5811C88.8874 14.6689 88.7785 14.7234 88.724 14.7446C88.6695 14.7658 88.6089 14.7764 88.5423 14.7764C88.4666 14.7764 88.4106 14.7658 88.3743 14.7446C88.3047 14.7052 88.2699 14.6311 88.2699 14.5221C88.2699 14.3132 88.4076 14.1482 88.6831 14.0271C88.9586 13.906 89.331 13.8455 89.8002 13.8455C90.5782 13.8455 91.1383 14.0271 91.4804 14.3904ZM95.6626 14.6356C95.5991 14.4085 95.375 14.295 94.9906 14.295C94.4941 14.295 94.1005 14.3798 93.8099 14.5493C93.5919 14.7007 93.4769 14.9096 93.4648 15.176C93.4648 15.5483 93.6404 15.8375 93.9915 16.0433C94.376 16.2552 94.9331 16.3612 95.6626 16.3612V14.6356ZM96.0986 13.8455C96.3317 13.8455 96.4482 13.9696 96.4482 14.2178V18.1276C96.4482 18.3759 96.3181 18.5 96.0577 18.5C95.7974 18.5 95.6672 18.3759 95.6672 18.1276V16.8062L95.6626 16.8017C95.1571 16.8017 94.709 16.7608 94.3185 16.6791C94.2458 16.7638 94.1823 16.838 94.1278 16.9016C93.8311 17.2618 93.6192 17.6902 93.492 18.1867C93.4497 18.3956 93.321 18.5 93.106 18.5C92.8518 18.5 92.7246 18.3623 92.7246 18.0868C92.7246 17.8839 92.8578 17.5615 93.1242 17.1195C93.2574 16.9046 93.4148 16.6806 93.5965 16.4475C93.0213 16.172 92.7337 15.7527 92.7337 15.1896C92.7337 14.675 92.9698 14.3041 93.4421 14.0771C93.763 13.9227 94.1535 13.8455 94.6137 13.8455H96.0986ZM100.585 17.1695C100.585 16.9212 100.461 16.7184 100.213 16.561C99.8192 16.3188 99.0881 16.1977 98.0194 16.1977V17.7099C98.1072 17.9369 98.3948 18.0504 98.8822 18.0504C99.4211 18.0504 99.8479 17.9657 100.163 17.7961C100.444 17.6448 100.585 17.4359 100.585 17.1695ZM98.8641 14.2814C98.3888 14.2814 98.1072 14.3858 98.0194 14.5947V15.6891C98.9882 15.6891 99.6103 15.5862 99.8858 15.3803C100.04 15.2623 100.117 15.0882 100.117 14.8581C100.117 14.6916 100.031 14.5599 99.8585 14.463C99.6436 14.3419 99.3121 14.2814 98.8641 14.2814ZM101.334 17.1559C101.334 17.6705 101.077 18.0414 100.562 18.2684C100.214 18.4228 99.7904 18.5 99.2909 18.5H97.6743C97.4261 18.5 97.3019 18.3759 97.3019 18.1276V14.2133C97.3019 13.9681 97.4261 13.8455 97.6743 13.8455H99.1002C99.5876 13.8485 99.9902 13.9211 100.308 14.0634C100.717 14.2451 100.921 14.5281 100.921 14.9126C100.921 15.2607 100.733 15.5362 100.358 15.7391C100.213 15.8178 100.052 15.8768 99.8767 15.9162C100.252 15.9828 100.559 16.0933 100.799 16.2477C101.156 16.4747 101.334 16.7774 101.334 17.1559ZM105.662 18.1276C105.662 18.3759 105.538 18.5 105.29 18.5C105.081 18.5 104.955 18.3971 104.913 18.1912C104.801 17.7492 104.608 17.3738 104.336 17.065C104.027 16.7139 103.788 16.4505 103.619 16.2749C103.458 16.393 103.308 16.4974 103.169 16.5882C102.999 16.7063 102.881 16.7865 102.815 16.8289V18.1276C102.815 18.3759 102.691 18.5 102.442 18.5C102.194 18.5 102.07 18.3759 102.07 18.1276V14.2133C102.07 13.9681 102.194 13.8455 102.442 13.8455C102.691 13.8455 102.815 13.9681 102.815 14.2133V16.2794C102.939 16.1947 103.083 16.0933 103.246 15.9752C103.494 15.7875 103.74 15.5756 103.982 15.3395C104.224 15.1033 104.545 14.6568 104.944 13.9999C104.999 13.903 105.081 13.8545 105.19 13.8545C105.377 13.8545 105.471 13.9469 105.471 14.1315C105.471 14.2012 105.447 14.2632 105.399 14.3177C104.896 15.0049 104.469 15.5029 104.118 15.8117C104.4 16.0933 104.649 16.3718 104.867 16.6473C105.034 16.8562 105.182 17.0666 105.312 17.2785C105.545 17.6629 105.662 17.9369 105.662 18.1004V18.1276ZM110.421 14.0998C110.4 15.6558 110.027 17.1165 109.304 18.4818C109.028 19.0631 108.65 19.552 108.169 19.9486C107.721 20.3179 107.25 20.5026 106.756 20.5026C106.605 20.5026 106.478 20.4602 106.375 20.3754C106.269 20.2937 106.216 20.1923 106.216 20.0712C106.216 19.9743 106.249 19.9001 106.316 19.8487C106.379 19.7942 106.472 19.7669 106.593 19.7669C106.62 19.7669 106.699 19.773 106.829 19.7851L107.097 19.8033C107.424 19.8033 107.725 19.6746 108.001 19.4173C108.3 19.1357 108.539 18.7861 108.718 18.3683C108.603 18.4137 108.503 18.4485 108.418 18.4728C108.331 18.4939 108.24 18.5045 108.146 18.5045C107.683 18.5045 107.313 18.2427 107.038 17.7189C106.684 17.0529 106.46 16.2537 106.366 15.3213L106.343 14.1815C106.355 13.9454 106.478 13.8273 106.711 13.8273C106.956 13.8273 107.079 13.9499 107.079 14.1951C107.079 15.0942 107.138 15.792 107.256 16.2885C107.356 16.7184 107.512 17.1014 107.724 17.4374C107.954 17.8067 108.205 17.9914 108.477 17.9914C108.78 17.9914 109.044 17.7598 109.268 17.2966C109.452 16.9152 109.601 16.3763 109.713 15.68C109.746 15.453 109.791 14.9217 109.849 14.0861C109.855 13.9015 109.95 13.8091 110.135 13.8091C110.304 13.8091 110.4 13.8954 110.421 14.068V14.0998Z" fill="white"/>
<path d="M122.039 32.4718L122.04 32.4715L124.107 31.8088L124.754 31.6014L124.209 31.195L118.209 26.7195L117.65 26.3023V27V34.9387V35.7039L118.229 35.2035L120.013 33.6613C120.02 33.6561 120.024 33.6542 120.025 33.6537L120.027 33.6537C120.029 33.6543 120.031 33.6552 120.033 33.6568C120.036 33.6594 120.043 33.666 120.051 33.6801L120.051 33.6801L120.052 33.6819L121.966 37.1685L122.15 37.5035L122.468 37.2908L123.731 36.445L123.997 36.2666L123.843 35.9856L122.011 32.6521C121.993 32.617 121.987 32.5689 122.001 32.5259C122.008 32.5064 122.019 32.4908 122.028 32.4807C122.034 32.4752 122.037 32.4726 122.039 32.4718Z" fill="white" stroke="#474747" stroke-width="0.7"/>
</svg>
