<svg width="70" height="38" viewBox="0 0 70 38" fill="none" xmlns="http://www.w3.org/2000/svg">
<path fill-rule="evenodd" clip-rule="evenodd" d="M13.3114 0.0915058C13.0333 0.193422 12.5001 0.688305 12.3059 1.02468C12.214 1.18401 12.1185 2.19383 12.0788 3.42837L12.0103 5.55734L9.33951 5.63357C7.87058 5.67546 6.65037 5.72175 6.62791 5.73659C6.60545 5.75128 6.50533 5.95814 6.40562 6.19617C6.14909 6.80794 6.31577 7.29514 6.88115 7.58577C7.31738 7.80994 7.88194 7.82573 14.2479 7.7918L21.1422 7.75499L21.4727 7.36958C21.8781 6.89695 21.8926 6.46387 21.5192 5.98794L21.2354 5.62602H17.7527H14.2702V3.9091V2.19219H32.4185H50.5667L50.5319 16.5113L50.497 30.8303L42.515 30.8658C36.1998 30.8938 34.5205 30.8651 34.4731 30.7284C33.8369 28.8931 33.2616 28.0127 32.1406 27.1585C30.3605 25.802 27.8112 25.5994 25.7558 26.651C24.5127 27.2869 23.374 28.6674 22.8764 30.1418L22.644 30.8303L18.457 30.8666L14.2702 30.903V27.7418V24.5808H16.1192C17.7856 24.5808 17.9953 24.5536 18.2421 24.3061C18.6586 23.8884 18.6519 23.1633 18.2275 22.7265C17.9671 22.4585 17.7803 22.4518 10.5566 22.4518H3.15247L2.82184 22.8372C2.41643 23.3098 2.40191 23.7429 2.77527 24.2188L3.05906 24.5808H7.56898H12.0788V28.4801C12.0788 32.1139 12.0966 32.4015 12.3405 32.7037L12.6021 33.028L17.6328 33.0967L22.6634 33.1653L22.8271 33.7148C23.4655 35.8582 25.3413 37.5021 27.6236 37.918C30.3823 38.421 33.4602 36.5508 34.2371 33.8998L34.4723 33.0971L44.4104 33.0968L54.3486 33.0967L54.5234 33.7807C54.9017 35.2608 56.1831 36.7188 57.7301 37.4291C60.9649 38.9143 64.707 37.3039 65.8941 33.916L66.1571 33.1653L67.4412 33.0967C68.8655 33.0204 69.2916 32.8356 69.7515 32.0934C70.0093 31.6773 70.0215 31.4433 69.9846 27.6025C69.9464 23.6149 69.9403 23.5376 69.5981 22.7265C69.4071 22.2732 67.8794 19.43 66.2034 16.4082C62.9984 10.6295 62.5888 10.0412 61.5741 9.7587C61.2493 9.66819 59.4376 9.6105 56.9074 9.61009L52.7716 9.60926L52.73 5.45433C52.6889 1.35612 52.684 1.29321 52.3694 0.850932C51.7152 -0.0687856 53.1864 -0.00656431 32.3904 0.00538542C22.01 0.0112916 13.4244 0.0501624 13.3114 0.0915058ZM12.6951 10.1872C12.1056 10.5262 12.0877 10.6412 12.0832 14.1076L12.0788 17.4384H10.4291C8.86 17.4384 8.76276 17.4549 8.44308 17.7756C7.99823 18.2216 7.99823 18.8529 8.44308 19.2988L8.77919 19.636H18.8338C28.7983 19.636 28.8916 19.6334 29.2492 19.3513C29.7589 18.9493 29.7589 18.1252 29.2492 17.7231C28.8943 17.4432 28.7662 17.4384 21.5792 17.4384H14.2702V14.1313V10.8243L13.8698 10.4228C13.4432 9.99495 13.1364 9.93341 12.6951 10.1872ZM0.330477 11.8834C-0.137801 12.2122 -0.101095 13.1976 0.394028 13.5881C0.752871 13.8712 0.864222 13.8774 4.926 13.8385L9.0901 13.7985L9.3517 13.4742C9.71506 13.0241 9.68986 12.3389 9.2965 11.9682C8.98532 11.6751 8.90246 11.6696 4.80712 11.6696C1.25251 11.6696 0.589748 11.7012 0.330477 11.8834ZM61.1975 12.0647C61.6497 12.5944 67.4289 23.1653 67.6219 23.816C67.7735 24.3269 67.8228 25.2811 67.8228 27.7027V30.9121L66.991 30.8713L66.1593 30.8303L65.9274 30.1418C64.8939 27.073 61.794 25.3656 58.7093 26.1661C56.7352 26.6784 55.0508 28.3118 54.466 30.2809C54.303 30.8299 54.3022 30.8303 53.5299 30.8715L52.7569 30.9128V21.3598V11.8069H56.8671C60.718 11.8069 60.9912 11.8231 61.1975 12.0647ZM29.7351 28.3672C30.5798 28.6187 31.5474 29.4436 31.9682 30.2708C32.3591 31.0391 32.4423 32.3328 32.1565 33.1958C31.8595 34.0926 31.1216 34.9415 30.2453 35.3942C29.3898 35.8363 27.9519 35.8913 27.1013 35.5145C26.3116 35.1647 25.4321 34.2752 25.0921 33.4822C24.7172 32.6085 24.7481 31.1364 25.1593 30.2868C25.7285 29.1105 27.177 28.1756 28.4552 28.1591C28.7617 28.1551 29.3376 28.2488 29.7351 28.3672ZM61.5681 28.43C64.1726 29.4071 64.8417 32.9119 62.7797 34.7761C61.9932 35.4872 61.3405 35.7425 60.2898 35.7503C58.1731 35.766 56.6204 34.3245 56.4857 32.2182C56.4073 30.9938 56.7391 30.1169 57.6017 29.2679C58.6782 28.2084 60.1493 27.8976 61.5681 28.43Z" fill="#fff"/>
</svg>
