<svg width="13" height="9" viewBox="0 0 13 9" fill="none" xmlns="http://www.w3.org/2000/svg">
<path fill-rule="evenodd" clip-rule="evenodd" d="M0.877514 0.0360508C0.663783 0.0887122 0.503789 0.178639 0.342628 0.336723C0.176643 0.499556 0.0763014 0.678859 0.0300776 0.895278C-0.0103333 1.08443 -0.00987643 7.91746 0.0305599 8.10346C0.123541 8.53122 0.479065 8.88151 0.910488 8.97046C1.10196 9.00995 11.8991 9.0098 12.0895 8.97031C12.5203 8.88098 12.88 8.52685 12.9701 8.10346C13.0104 7.91401 13.0098 1.08078 12.9695 0.895278C12.8759 0.46479 12.5243 0.118429 12.0895 0.0284028C11.8843 -0.0141111 1.05109 -0.00671306 0.877514 0.0360508ZM9.22872 3.17631C7.87452 4.51059 6.7357 5.61843 6.69801 5.63817C6.66029 5.65792 6.57122 5.67406 6.50002 5.67406C6.42881 5.67406 6.33974 5.65792 6.30202 5.63817C6.26433 5.61843 5.12551 4.51059 3.77131 3.17631L1.30914 0.750341H6.50002H11.6909L9.22872 3.17631ZM2.40686 6.11767L0.763287 7.73598V4.49937V1.26276L2.40686 2.88106L4.05043 4.49937L2.40686 6.11767ZM12.2367 4.50559V7.73598L10.5932 6.1177L8.94965 4.49942L10.5868 2.88731C11.4872 2.00064 12.2268 1.2752 12.2303 1.2752C12.2339 1.2752 12.2367 2.72888 12.2367 4.50559ZM5.17811 5.6323C5.72386 6.16401 5.79435 6.22402 5.97833 6.31337L6.18008 6.41137H6.4987C6.8148 6.41137 6.81889 6.41062 7.01772 6.31715C7.20337 6.22987 7.26277 6.17933 7.82446 5.63065L8.43078 5.03833L10.0608 6.64336L11.6909 8.24839H6.50007H1.30919L2.9336 6.64881C3.82703 5.76904 4.56288 5.04922 4.56882 5.04922C4.57476 5.04922 4.84893 5.31161 5.17811 5.6323Z" fill="#474747"/>
</svg>
