<svg width="49" height="50" viewBox="0 0 49 50" fill="none" xmlns="http://www.w3.org/2000/svg">
<path fill-rule="evenodd" clip-rule="evenodd" d="M10.407 0.156909C6.69711 1.18473 4.94083 4.87159 6.7099 7.91776L7.00556 8.42661L3.7849 9.84118C1.91426 10.6629 0.445997 11.3831 0.282118 11.5596L0 11.8633V25.4766C0 38.2571 0.0134163 39.1062 0.219425 39.3556C0.450762 39.6358 23.6776 50 24.0741 50C24.4705 50 47.6974 39.6358 47.9287 39.3556C48.1347 39.1062 48.1481 38.2571 48.1481 25.4766V11.8633L47.866 11.559C47.7018 11.3818 46.239 10.6636 44.364 9.83943L41.1442 8.42398L41.439 7.91639C42.8086 5.55805 42.0125 2.49736 39.6336 0.97446C36.9054 -0.771967 33.1714 -0.142168 29.8028 2.63258L29.1996 3.12941L26.7711 2.04818C25.4355 1.45353 24.2273 0.966955 24.0861 0.966955C23.9451 0.966955 22.7301 1.45316 21.3862 2.04731L18.9428 3.12766L18.5034 2.74278C17.4062 1.78175 15.7211 0.822733 14.2898 0.344661C13.2119 -0.015332 11.3532 -0.105268 10.407 0.156909ZM13.3271 2.15363C16.3098 2.92865 20.0665 6.44815 22.1051 10.3773C22.5805 11.2934 22.6662 11.545 22.514 11.5767C22.1434 11.654 18.1032 11.2037 16.4553 10.9015C11.5228 9.99667 8.33903 8.03634 8.06594 5.73592C7.95774 4.82555 8.20926 4.06942 8.86064 3.34681C9.94936 2.13874 11.5867 1.70145 13.3271 2.15363ZM37.8878 2.32249C39.13 2.85935 40.1196 4.17424 40.1222 5.29137C40.1245 6.23976 39.7715 6.96787 38.88 7.8531C37.4532 9.26993 35.0645 10.283 31.6929 10.9015C30.0449 11.2037 26.0048 11.654 25.6341 11.5767C25.4819 11.545 25.5677 11.2934 26.043 10.3773C28.0743 6.46241 31.7428 2.99295 34.7319 2.16013C35.6362 1.90809 37.104 1.98364 37.8878 2.32249ZM25.7944 3.79586C26.6757 4.18225 27.4451 4.54286 27.5041 4.59715C27.5631 4.65144 27.301 5.06084 26.9216 5.50701C26.1234 6.44565 25.1615 7.83984 24.538 8.96234L24.1025 9.74625L23.4123 8.57746C22.6685 7.31786 21.8136 6.11055 21.0432 5.2317C20.7776 4.92875 20.5901 4.65094 20.6267 4.61454C20.7433 4.49808 23.8799 3.10527 24.039 3.09927C24.1231 3.09601 24.913 3.40948 25.7944 3.79586ZM9.51114 10.5876C11.7094 11.9056 13.4514 12.4413 17.9239 13.1749C18.3167 13.2395 18.067 13.3717 15.2126 14.6105L12.0685 15.9749L7.77116 14.0759C3.574 12.221 3.48234 12.1729 3.83718 12.0106C5.23887 11.3695 8.35157 9.98928 8.41213 9.9819C8.45288 9.97703 8.9474 10.2496 9.51114 10.5876ZM42.1448 11.0484C43.4813 11.6399 44.5907 12.139 44.6104 12.1576C44.63 12.1763 42.7245 13.0438 40.3757 14.0855L36.1055 15.9794L32.9597 14.616L29.8139 13.2525L30.737 13.1035C34.5893 12.4813 37.3085 11.5701 39.1209 10.2939C39.362 10.1241 39.5943 9.98253 39.6371 9.97915C39.68 9.97577 40.8084 10.457 42.1448 11.0484ZM29.6224 15.3544C31.743 16.2725 33.4765 17.0555 33.4748 17.0946C33.4704 17.1906 24.3062 21.2311 24.093 21.2309C23.8873 21.2306 14.8116 17.2299 14.7345 17.1055C14.7045 17.057 16.4294 16.2626 18.5679 15.3401L22.4558 13.663L24.1113 13.674L25.7668 13.685L29.6224 15.3544ZM6.83353 15.8462C9.04032 16.8241 10.8885 17.6648 10.9405 17.7144C10.9926 17.764 11.0208 23.2689 11.0032 29.9475L10.9713 42.0905L6.52006 40.1183L2.06887 38.1463L2.03689 25.9339L2.00492 13.7217L2.41305 13.8949C2.63749 13.9902 4.62674 14.8683 6.83353 15.8462ZM46.0486 38.1264C45.9728 38.1948 39.9691 40.8776 37.6465 41.8809L37.1129 42.1113L37.1449 29.9041L37.1769 17.6967L41.6281 15.7251L46.0793 13.7534L46.1113 25.8971C46.1288 32.5761 46.1006 38.0792 46.0486 38.1264ZM18.7133 21.1165L23.0699 23.0443L23.0705 35.2088C23.0707 41.8993 23.0275 47.3732 22.9742 47.3732C22.9209 47.3732 20.6781 46.3973 17.9901 45.2046L13.1028 43.0361L13.0708 30.8212L13.0389 18.6065L13.6978 18.8975C14.0601 19.0578 16.3172 20.0562 18.7133 21.1165ZM35.0146 43.0089C34.9083 43.1099 25.6389 47.2401 25.2966 47.339C25.0887 47.3991 25.0773 46.7641 25.0803 35.2234L25.0833 23.0443L30.0644 20.8455L35.0453 18.6465L35.0773 30.7828C35.0949 37.4577 35.0667 42.9594 35.0146 43.0089Z" fill="#fff"/>
</svg>
