<svg width="37" height="38" viewBox="0 0 37 38" fill="none" xmlns="http://www.w3.org/2000/svg">
<path fill-rule="evenodd" clip-rule="evenodd" d="M19.3287 3.00586C17.7024 4.65908 16.3496 6.01172 16.3226 6.01172C16.2955 6.01172 16.0281 5.83255 15.7282 5.61361C15.0477 5.11679 13.909 4.51918 13.2378 4.30662C12.5805 4.09843 11.6902 4.07995 11.2491 4.26528C10.8697 4.42462 10.4128 4.93525 10.2967 5.32943C10.1119 5.95702 10.2177 6.85833 10.5837 7.77612L10.744 8.17787L9.40166 9.54186L8.05936 10.9058L7.33 10.6489C6.1739 10.2416 5.2636 10.2972 4.6737 10.8109C4.23754 11.1909 4.08438 11.5815 4.08438 12.3142C4.08438 13.358 4.61732 14.7072 5.53973 15.9987L5.96042 16.5879L2.98021 19.6329C0.203198 22.4704 0 22.6956 0 22.9354C0 23.1746 0.17096 23.3666 2.40687 25.6389L4.81373 28.085V32.8604V37.6357L4.99279 37.8178L5.17177 38H19.6487H34.1256L34.3302 37.8209L34.5349 37.6417V29.8073V21.9729L34.3689 21.8038C34.2082 21.6401 34.1498 21.6336 32.5291 21.5977L30.8553 21.5605L31.1866 21.0781C31.3689 20.8128 31.6372 20.3452 31.7828 20.0391C32.0077 19.5664 32.0471 19.4086 32.0437 18.9932C32.0366 18.0972 31.4635 17.199 30.6433 16.7983C30.3058 16.6335 30.1267 16.5964 29.6482 16.5926C28.9693 16.5871 28.5362 16.7288 28.0308 17.1212L27.699 17.379L27.5066 17.1928C27.4009 17.0905 27.1338 16.9136 26.9131 16.7997C26.5693 16.6223 26.4233 16.5924 25.8907 16.5903C25.3331 16.5881 25.2196 16.6129 24.7815 16.8322C24.2509 17.0979 23.8805 17.4775 23.6132 18.0295C23.4812 18.3021 23.4489 18.4937 23.4498 19C23.4508 19.5693 23.4748 19.6779 23.6957 20.1133C23.8303 20.3786 24.0841 20.806 24.2598 21.0631C24.4355 21.3202 24.5792 21.5456 24.5792 21.5641C24.5792 21.5826 21.65 21.5977 18.0699 21.5977H11.5605L19.5432 13.4743C27.1905 5.69213 27.5258 5.33967 27.5258 5.08295C27.5258 4.82993 27.3927 4.67964 25.1567 2.40743C22.9655 0.180723 22.7689 0 22.5368 0C22.3037 0 22.0761 0.213231 19.3287 3.00586ZM24.3061 3.32173L26.0376 5.0848L22.0994 9.0918L18.1612 13.0988L16.4105 11.3184L14.6597 9.53793L18.5798 5.5483C20.736 3.35395 22.5168 1.55859 22.5373 1.55859C22.5579 1.55859 23.3538 2.35199 24.3061 3.32173ZM32.2501 2.24987C32.1266 2.38361 32.0916 2.51282 32.0916 2.83337V3.24499L31.6471 3.28604C31.0902 3.33739 30.8517 3.53163 30.8517 3.93359C30.8517 4.33757 31.0729 4.51324 31.6178 4.54167L32.0551 4.56445L32.0775 5.00947C32.1046 5.54755 32.2805 5.78906 32.6454 5.78906C32.7755 5.78906 32.9351 5.76828 33 5.74297C33.1887 5.66927 33.3315 5.30716 33.3315 4.90215V4.52734H33.7691C34.1076 4.52734 34.2393 4.49417 34.3507 4.38076C34.5598 4.16798 34.601 3.91036 34.4678 3.64815C34.3449 3.40634 34.0166 3.26681 33.5685 3.26607C33.3358 3.26562 33.3315 3.25932 33.3315 2.92793C33.3315 2.55587 33.1829 2.19569 33 2.12421C32.7415 2.02328 32.4077 2.07924 32.2501 2.24987ZM12.6349 5.45226C12.905 5.51052 13.4047 5.69673 13.7454 5.8661C14.3618 6.17255 15.3894 6.85677 15.3894 6.96075C15.3894 6.99081 14.848 7.56549 14.1864 8.23776L12.9834 9.46022L12.8554 9.28365C11.5764 7.52118 11.0647 5.70586 11.7656 5.41849C11.9863 5.32794 12.0745 5.33143 12.6349 5.45226ZM30.0723 7.85168C28.9719 8.2529 28.3081 9.22131 28.3857 10.3126C28.4462 11.1647 29.3305 12.6178 30.5599 13.8855C31.6403 14.9997 32.4042 15.4174 33.0186 15.2301C33.4906 15.0861 33.9844 14.7094 34.8315 13.8471C35.7 12.9629 36.5499 11.7576 36.8425 10.9951C37.1707 10.1397 36.9809 9.2343 36.3205 8.50525C35.8611 7.99803 35.3281 7.76632 34.6078 7.76054C33.9301 7.75512 33.4958 7.89665 32.9937 8.28667L32.6653 8.54176L32.4042 8.30849C31.8174 7.78429 30.8026 7.58545 30.0723 7.85168ZM31.3133 9.0817C31.7599 9.27163 32.0862 9.83458 32.0934 10.4277C32.1002 10.9809 32.784 11.2464 33.1479 10.8373C33.2183 10.7581 33.2967 10.4907 33.3304 10.2142C33.4015 9.63025 33.5999 9.31468 34.0171 9.12186C34.5626 8.86981 35.1039 8.98077 35.4663 9.41903C35.8792 9.91844 35.8624 10.3997 35.4058 11.1429C34.8506 12.0468 33.5988 13.4741 33.0186 13.8648L32.7338 14.0566L32.41 13.8817C31.8457 13.5771 30.5425 12.0834 29.9005 11.0055C29.4351 10.2242 29.5994 9.44448 30.2974 9.12186C30.6541 8.95709 30.9889 8.9438 31.3133 9.0817ZM11.754 9.85573L12.0935 10.3535L11.1429 11.3288L10.1924 12.3042L9.68625 11.9284L9.18015 11.5527L10.2599 10.4522C10.8537 9.84682 11.3565 9.35297 11.377 9.35475C11.3975 9.35653 11.5672 9.58194 11.754 9.85573ZM15.554 12.2281L17.2857 13.9913L15.5352 15.7715L13.7848 17.5515L12.0343 15.7715L10.2839 13.9913L12.0155 12.2281C12.9679 11.2583 13.7641 10.4648 13.7848 10.4648C13.8055 10.4648 14.6017 11.2583 15.554 12.2281ZM23.5913 11.6861C23.2172 12.0667 23.4743 12.7656 23.9884 12.7656C24.3232 12.7656 24.6084 12.4754 24.6084 12.1348C24.6084 11.5863 23.9673 11.3035 23.5913 11.6861ZM6.63442 11.7361C6.8134 11.7773 7.20339 11.9254 7.50111 12.0654C8.04528 12.3212 9.26279 13.1028 9.26279 13.1962C9.26279 13.2629 6.90858 15.6602 6.84316 15.6602C6.77081 15.6602 6.03525 14.5134 5.79683 14.029C5.48146 13.3882 5.32093 12.8403 5.31458 12.383C5.30772 11.8864 5.33996 11.8182 5.64301 11.688C5.87203 11.5896 6.02993 11.5973 6.63442 11.7361ZM11.1403 16.643C12.0733 17.5917 12.8366 18.4017 12.8366 18.443C12.8366 18.4843 11.0723 20.3132 8.91591 22.5073L4.99527 26.4964L3.24562 24.7148L1.49598 22.9333L5.43383 18.9256C7.59964 16.7214 9.38795 14.918 9.40786 14.918C9.4277 14.918 10.2073 15.6942 11.1403 16.643ZM18.6317 16.733C18.4811 16.8862 18.4526 16.9864 18.4526 17.3638V17.8125H18.0117C17.4666 17.8125 17.2127 18.013 17.2127 18.4434C17.2127 18.8738 17.4666 19.0742 18.0117 19.0742H18.4526V19.5229C18.4526 19.9003 18.4811 20.0005 18.6317 20.1537C18.8616 20.3877 19.184 20.3909 19.446 20.1616C19.6131 20.0152 19.6504 19.9139 19.6776 19.5307L19.71 19.0742H20.0984C20.6122 19.0742 20.8887 18.8536 20.8887 18.4434C20.8887 18.0332 20.6122 17.8125 20.0984 17.8125H19.71L19.6776 17.356C19.6504 16.9729 19.6131 16.8715 19.446 16.7251C19.184 16.4959 18.8616 16.499 18.6317 16.733ZM26.5356 18.013C26.8372 18.2403 27.0473 18.6057 27.0958 18.9869C27.1728 19.5928 27.2022 19.6627 27.43 19.7826C27.6916 19.9202 28.0071 19.8731 28.1883 19.6693C28.2587 19.5901 28.3371 19.3227 28.3708 19.0462C28.4419 18.4623 28.6403 18.1467 29.0575 17.9539C29.7899 17.6154 30.5625 17.9785 30.7752 18.7611C30.8422 19.0075 30.8234 19.0947 30.5994 19.5747C30.3127 20.1896 30.0189 20.6503 29.5579 21.208L29.2358 21.5977H27.7212H26.2066L25.9114 21.2414C25.522 20.7714 24.9798 19.9135 24.791 19.4682C24.5233 18.8371 24.7404 18.2341 25.3378 17.9497C25.7086 17.7732 26.2559 17.8022 26.5356 18.013ZM34.7504 17.9947C34.3763 18.3753 34.6334 19.0742 35.1475 19.0742C35.4823 19.0742 35.7675 18.784 35.7675 18.4434C35.7675 17.8949 35.1264 17.6121 34.7504 17.9947ZM16.5563 29.7988V36.7383H11.305H6.05363V31.9702V27.2021L8.18656 25.0307L10.3194 22.8594H13.4379H16.5563V29.7988ZM21.5159 29.7988V36.7383H19.6561H17.7962V29.7988V22.8594H19.6561H21.5159V29.7988ZM33.3315 29.7988V36.7383H28.0436H22.7558V29.7988V22.8594H28.0436H33.3315V29.7988Z" fill="#DD4141"/>
</svg>
