<svg width="10" height="15" viewBox="0 0 10 15" fill="none" xmlns="http://www.w3.org/2000/svg">
<path fill-rule="evenodd" clip-rule="evenodd" d="M4.44523 0.530053C3.88383 0.592562 3.34455 0.749627 2.81889 1.00376C1.77431 1.50876 0.996475 2.27667 0.496813 3.29611C-0.409962 5.14617 -0.087252 7.13224 1.562 9.85148C2.03122 10.6251 2.46835 11.2656 3.56843 12.791C3.93718 13.3023 4.34637 13.8746 4.47773 14.0627C4.72794 14.421 4.82257 14.5 5.00125 14.5C5.17992 14.5 5.27456 14.421 5.52476 14.0627C5.65612 13.8746 6.06546 13.3023 6.43437 12.791C7.51235 11.2968 7.9876 10.5999 8.44575 9.8415C9.9275 7.38872 10.3187 5.60222 9.75169 3.8774C9.64619 3.55646 9.35917 2.98444 9.14764 2.67362C8.12435 1.16988 6.27413 0.326476 4.44523 0.530053ZM5.82137 1.40274C7.71429 1.79358 9.07269 3.35496 9.16326 5.24398C9.20685 6.15342 8.92848 7.15983 8.28209 8.42958C7.77337 9.42888 7.21124 10.2932 5.72407 12.3625C5.33416 12.9051 5.00889 13.3492 5.00125 13.3496C4.9936 13.3499 4.91629 13.2489 4.82944 13.1253C4.74259 13.0016 4.40048 12.5251 4.0692 12.0664C3.41344 11.1584 2.76101 10.2097 2.45195 9.71476C1.29714 7.86536 0.78202 6.43734 0.839234 5.24398C0.910932 3.74841 1.76933 2.44765 3.1386 1.7597C3.55539 1.55029 4.00215 1.41513 4.50084 1.34762C4.79555 1.30772 5.5045 1.33731 5.82137 1.40274ZM4.50084 3.01179C3.5592 3.2149 2.83054 3.8952 2.57858 4.80647C2.52949 4.98407 2.51812 5.09982 2.51812 5.42172C2.51812 5.74361 2.52949 5.85936 2.57858 6.03696C2.82368 6.92343 3.5237 7.59531 4.43609 7.81983C4.72282 7.89038 5.33366 7.88245 5.62676 7.80436C6.50743 7.56974 7.1841 6.90427 7.42391 6.03696C7.47301 5.85936 7.48438 5.74361 7.48438 5.42172C7.48438 5.09982 7.47301 4.98407 7.42391 4.80647C7.1836 3.93736 6.49921 3.26513 5.62676 3.04127C5.30422 2.95849 4.80817 2.94551 4.50084 3.01179ZM5.40169 3.83507C5.71573 3.91409 5.92901 4.03547 6.16982 4.27233C6.41063 4.50919 6.53404 4.71897 6.61438 5.02785C6.71491 5.41455 6.66231 5.83565 6.46843 6.19594C6.34802 6.41964 6.01127 6.75147 5.7884 6.86598C5.41876 7.05589 4.99277 7.10694 4.60081 7.00837C4.29138 6.93052 4.07429 6.80673 3.83242 6.57017C3.59145 6.33452 3.46899 6.12649 3.38811 5.81558C3.28789 5.43006 3.3398 5.01106 3.53287 4.64749C3.64941 4.42808 3.98663 4.09705 4.21454 3.97841C4.58079 3.78774 5.00828 3.73611 5.40169 3.83507Z" fill="#474747"/>
</svg>
