<svg width="37" height="38" viewBox="0 0 37 38" fill="none" xmlns="http://www.w3.org/2000/svg">
<path fill-rule="evenodd" clip-rule="evenodd" d="M26.1971 0.121185C25.8258 0.255466 25.4079 0.657196 25.206 1.074C25.0713 1.352 25.0633 1.53448 25.0633 4.30233C25.0633 7.16836 25.0669 7.24285 25.2202 7.5331C25.3065 7.6965 25.4861 7.93714 25.6193 8.06778C26.0323 8.473 26.3305 8.55915 27.4437 8.59495L28.4453 8.62711L28.406 8.82281C28.2762 9.46852 27.8526 12.1236 27.8711 12.1755C27.8833 12.2097 29.1667 11.422 30.7232 10.4248L33.5532 8.61196L34.4023 8.611C34.8692 8.61048 35.4176 8.57356 35.6209 8.52893C36.1231 8.41871 36.5558 8.06874 36.8004 7.57499L37 7.17222L36.9984 4.27047C36.997 1.61648 36.9854 1.34301 36.8637 1.06866C36.696 0.690841 36.153 0.196198 35.7804 0.0819697C35.5745 0.0188396 34.2519 -0.00373867 31.0051 0.000494764C27.1495 0.00554517 26.4696 0.0225532 26.1971 0.121185ZM35.6608 1.43956L35.839 1.62182V4.22954C35.839 6.89014 35.8249 7.04017 35.555 7.25221C35.4767 7.31378 35.0935 7.34349 34.3567 7.34505L33.2736 7.34743L31.3972 8.54556C30.3653 9.20457 29.5093 9.73092 29.495 9.71533C29.4807 9.69973 29.5591 9.16052 29.6693 8.51719L29.8694 7.34743H28.2431H26.6168L26.4387 7.16509L26.2606 6.98283V4.29193C26.2606 1.63133 26.2623 1.5991 26.4183 1.42909L26.5762 1.25723H31.0295H35.4828L35.6608 1.43956ZM16.8636 1.89878C16.1163 1.98011 14.7138 2.2535 14.0189 2.45321C11.1792 3.2693 8.69936 4.74922 6.62876 6.86341C4.57085 8.96452 3.14701 11.4201 2.35853 14.2277L2.11573 15.0922L1.58761 14.1883C1.29714 13.691 1.03127 13.2664 0.996872 13.2447C0.949705 13.2148 0.207814 13.6152 0.000209242 13.7825C-0.0212696 13.7998 1.61715 16.6501 2.01661 17.2904C2.06639 17.3701 2.46128 17.1593 3.81198 16.3318C4.76438 15.7484 5.55365 15.2633 5.56592 15.2538C5.58195 15.2412 5.05725 14.3138 4.97235 14.2047C4.96683 14.1977 4.61969 14.4055 4.20085 14.6665C3.78201 14.9276 3.41731 15.1422 3.39046 15.1435C3.3126 15.1473 3.60771 14.1411 3.9468 13.247C5.77222 8.43379 9.71388 4.85617 14.6218 3.55806C17.0432 2.91763 19.8412 2.91703 22.2881 3.55658L23.0684 3.76052L23.2428 3.19584C23.3704 2.78253 23.3943 2.61794 23.3319 2.58155C23.178 2.49176 22.0753 2.22446 21.203 2.06544C20.5431 1.94527 19.9803 1.90457 18.7502 1.88831C17.8722 1.87665 17.0232 1.8814 16.8636 1.89878ZM27.4368 3.05829L27.4579 3.67103L31.0316 3.69026L34.6054 3.70957V3.07753V2.44556H31.0106H27.4157L27.4368 3.05829ZM27.4368 5.50923L27.4579 6.12196L29.8343 6.14157L32.2108 6.1611V5.52883V4.89649H29.8133H27.4157L27.4368 5.50923ZM33.4444 5.52779V6.1591H34.0249H34.6054V5.52779V4.89649H34.0249H33.4444V5.52779ZM17.299 6.20774C15.8147 6.45039 14.2709 7.21701 13.1473 8.26957C12.1445 9.20887 11.2815 10.6961 10.8957 12.15L10.7018 12.8806L10.6988 15.9257L10.6957 18.9708L10.8844 19.3827C11.1588 19.9814 11.4774 20.3121 12.0557 20.5984L12.5649 20.8506L12.7662 21.491C12.8769 21.8433 13.1093 22.3881 13.2828 22.7018C13.6352 23.339 14.5489 24.3379 15.1038 24.6923C15.3434 24.8455 15.4484 24.9617 15.4484 25.0743C15.4486 25.2604 15.6263 25.215 12.8963 25.7262C11.9115 25.9106 10.9272 26.1299 10.7088 26.2135C9.54756 26.6583 8.66446 27.6028 8.22189 28.8736C8.11283 29.1867 8.0029 29.4679 7.97757 29.4984C7.95217 29.5289 7.45134 29.0585 6.86452 28.4531C5.42326 26.966 5.41019 27.1778 7.04774 25.4917L8.29787 24.2046L6.08627 21.9382L3.87468 19.6719L2.27189 21.3267C0.920172 22.7222 0.6334 23.057 0.440889 23.4642C0.0840203 24.2189 -0.0279455 24.7855 0.00877176 25.6507C0.0439652 26.4787 0.197002 27.0145 0.586016 27.6715C0.738037 27.9283 2.38843 29.6653 5.35795 32.6941C9.59705 37.0178 9.93062 37.3403 10.3986 37.5677C11.7025 38.2013 13.2906 38.1337 14.4339 37.3959C14.6309 37.2687 15.5426 36.4634 16.4599 35.6062L18.1277 34.0477L17.6791 33.5836L17.2306 33.1194H23.6322C27.1531 33.1194 30.0339 33.0937 30.0339 33.0622C30.0339 32.8632 28.5532 28.5153 28.3546 28.1316C28.0468 27.5364 27.2985 26.7655 26.7322 26.4602C26.1322 26.1366 25.7679 26.0404 23.6846 25.6558C21.2739 25.2106 21.4706 25.2625 21.4759 25.0737C21.4791 24.9609 21.6457 24.7895 22.0297 24.504C22.3317 24.2793 22.7225 23.9235 22.8982 23.7133L23.2176 23.3312L24.0678 23.3018C24.7547 23.2781 24.9742 23.2423 25.2093 23.1158C25.5776 22.9178 25.869 22.6205 26.0684 22.2397C26.2228 21.9444 26.2243 21.9012 26.2243 17.5597C26.2243 13.6235 26.211 13.1148 26.094 12.5596C25.4486 9.49682 23.3186 7.18879 20.3856 6.37389C19.9692 6.25817 19.5617 6.21599 18.6777 6.19705C18.0391 6.18338 17.4187 6.18821 17.299 6.20774ZM19.5336 7.45824C21.9073 7.88195 23.9012 9.6057 24.6698 11.8986C24.9629 12.7727 25.0258 13.2955 25.0264 14.8614L25.027 16.248L24.7367 16.1313C24.4537 16.0175 24.4465 16.0056 24.4465 15.6545V15.2944H23.7541C21.9921 15.2944 20.3311 14.5565 19.0097 13.1867L18.4711 12.6283L17.8376 13.2453C16.3969 14.6486 14.9245 15.2944 13.1659 15.2944H12.4735V15.6545C12.4735 16.0069 12.4672 16.017 12.1765 16.1339L11.8795 16.2534L11.9126 14.5299C11.9495 12.6079 11.9932 12.3584 12.478 11.2954C13.3508 9.382 15.0544 7.9615 16.9779 7.54328C18.0155 7.31772 18.6312 7.29722 19.5336 7.45824ZM33.1263 11.5982C33.0683 11.6908 32.5947 12.4937 32.0739 13.3825L31.1271 14.9985L31.4331 15.1918C31.6014 15.2981 31.8115 15.4315 31.8999 15.4882C31.9882 15.5451 32.087 15.5915 32.1193 15.5915C32.1517 15.5915 32.4031 15.2045 32.6781 14.7314C33.0086 14.163 33.1963 13.9049 33.2318 13.9701C33.2613 14.0244 33.3696 14.3864 33.4724 14.7745C34.7049 19.4256 33.8247 24.4232 31.0855 28.327C30.8569 28.6528 30.6555 28.9577 30.6379 29.0045C30.6099 29.0793 31.3794 29.7752 31.4916 29.7767C31.5786 29.7778 32.3846 28.5988 32.8787 27.7477C34.431 25.0738 35.2039 22.1723 35.2067 19.0079C35.2083 17.2992 34.9716 15.5731 34.5352 14.1099C34.4566 13.8465 34.4011 13.622 34.4117 13.6111C34.4283 13.594 35.0624 13.9703 35.8885 14.4873L36.1194 14.6318L36.4243 14.1065C36.5919 13.8177 36.7166 13.569 36.7013 13.5541C36.6662 13.5198 33.5608 11.61 33.3715 11.5064C33.2583 11.4444 33.2115 11.462 33.1263 11.5982ZM18.9647 14.7954C19.9089 15.5925 21.2754 16.2252 22.451 16.4095C22.7703 16.4596 23.0723 16.5122 23.1222 16.5264C23.1917 16.5463 23.2127 16.9904 23.2118 18.43C23.2106 20.4486 23.1637 20.8313 22.8198 21.6249L22.6352 22.0507L20.5476 22.0705L18.46 22.0902V22.6843V23.2785L20.0201 23.3156L21.5802 23.3528L21.2374 23.5964C20.7232 23.9619 20.0538 24.2633 19.4525 24.4003C18.7335 24.564 17.6256 24.5131 16.9724 24.2864C15.5019 23.7758 14.3723 22.5957 13.8749 21.0504C13.6928 20.4847 13.6821 20.3639 13.651 18.5346C13.6153 16.433 13.6052 16.4861 14.0424 16.4838C14.3921 16.4821 15.5769 16.1537 16.1774 15.8922C16.7356 15.6491 17.992 14.8356 18.2354 14.5598C18.3114 14.4736 18.4021 14.4031 18.4369 14.4031C18.4717 14.4031 18.7092 14.5797 18.9647 14.7954ZM12.4735 18.4267V19.4795L12.2852 19.2994C12.1816 19.2004 12.051 19.0291 11.9949 18.9188C11.8725 18.6779 11.8612 18.0957 11.9746 17.8704C12.0781 17.6646 12.3351 17.374 12.4135 17.374C12.4465 17.374 12.4735 17.8477 12.4735 18.4267ZM24.894 17.8234C25.1479 18.3079 25.0422 18.9098 24.6348 19.2994L24.4465 19.4795V18.4176V17.3559L24.6037 17.4627C24.6902 17.5215 24.8208 17.6838 24.894 17.8234ZM25.027 21.128C25.027 21.624 25.0065 21.7094 24.8488 21.8707C24.7085 22.0144 24.5958 22.053 24.3172 22.053H23.9638L24.1307 21.5517C24.2225 21.276 24.2985 20.9992 24.2995 20.9367C24.301 20.8441 24.7251 20.6172 24.9726 20.5765C25.0025 20.5716 25.027 20.8198 25.027 21.128ZM6.30411 24.5406L5.97735 24.8751L4.60133 23.4652L3.22538 22.0554L3.54836 21.7186L3.87141 21.3817L5.25114 22.794L6.63093 24.2061L6.30411 24.5406ZM4.89659 26.0244C4.52376 26.5868 4.47565 27.3115 4.77236 27.8968C4.98991 28.3259 9.61171 33.0092 9.9669 33.1604C10.5254 33.3983 11.3942 33.2715 11.7858 32.895C11.934 32.7524 11.9388 32.7563 13.3106 34.1657L14.6867 35.5794L14.3071 35.9402C14.0983 36.1385 13.7391 36.3955 13.5089 36.5112C13.1226 36.7052 13.0257 36.7214 12.2558 36.7208C10.8904 36.7197 11.2756 37.0311 6.10913 31.7526C1.27116 26.8096 1.39909 26.9621 1.20854 25.913C1.04904 25.0351 1.34685 24.0612 2.00333 23.3139L2.33857 22.9322L3.71119 24.3372L5.08388 25.7421L4.89659 26.0244ZM18.4963 25.7165C19.0832 25.7136 19.5441 25.6713 19.8023 25.5969C20.0218 25.5335 20.2084 25.4889 20.217 25.4978C20.2257 25.5067 19.8335 25.9217 19.3453 26.4201L18.4579 27.3263L17.5604 26.4056L16.663 25.4849L17.1261 25.6029C17.4325 25.681 17.8962 25.7195 18.4963 25.7165ZM17.135 27.7526L18.4237 29.0701L19.7233 27.7413L21.023 26.4127L23.2971 26.834C25.1387 27.1751 25.6559 27.2974 26.0165 27.4769C26.5097 27.7225 26.9562 28.1284 27.2409 28.59C27.398 28.8448 28.3649 31.601 28.3649 31.7942C28.3649 31.8285 25.5808 31.8568 22.178 31.8568H15.9911L14.8681 30.7056C14.2504 30.0724 13.7167 29.5544 13.6819 29.5544C13.6473 29.5544 13.157 29.9834 12.5926 30.5078C10.9513 32.0326 10.8931 32.0796 10.6444 32.0796C10.4584 32.0796 10.2952 31.9532 9.67643 31.33L8.93222 30.5805L9.21326 29.7245C9.53174 28.754 9.81634 28.2517 10.2566 27.8824C10.8169 27.4125 11.2307 27.2794 13.4555 26.8533C14.6116 26.632 15.6224 26.4473 15.7018 26.4429C15.7976 26.4377 16.2802 26.8787 17.135 27.7526ZM16.0115 34.363L15.6328 34.7556L14.2527 33.3391L12.8726 31.9224L13.2651 31.5493L13.6575 31.1762L15.0239 32.5733L16.3904 33.9704L16.0115 34.363Z" fill="#DD4141"/>
</svg>
