<svg width="40" height="39" viewBox="0 0 40 39" fill="none" xmlns="http://www.w3.org/2000/svg">
<path fill-rule="evenodd" clip-rule="evenodd" d="M12.9085 0.106441C12.8305 0.165026 12.0472 1.64192 11.1678 3.38857L9.56897 6.56418V15.6337V24.7034L9.055 25.1733C8.4975 25.6832 8.16569 26.2548 8.01328 26.9676C7.92483 27.3814 7.89129 27.4236 7.49397 27.6192L7.06922 27.8282L6.77595 27.5385L6.48276 27.2489H3.49336H0.503966L0.251983 27.4978C0.0844828 27.6633 0 27.8331 0 28.0045C0 28.1462 0.657155 30.592 1.46043 33.4395C2.74224 37.9839 2.94836 38.6402 3.14621 38.8084C3.37112 38.9996 3.37931 39 6.52009 39H9.66845L9.92043 38.7511C10.2585 38.4171 10.2441 38.195 9.78965 36.7435C9.58448 36.0878 9.42172 35.5461 9.4281 35.5397C9.56974 35.398 12.2058 33.8266 12.4338 33.748C12.7225 33.6487 13.0391 33.6809 15.5148 34.0621C19.0548 34.6071 19.8722 34.608 21.1476 34.068C21.5383 33.9026 23.8878 32.45 29.032 29.1935L31.2966 27.7598H35.5057C39.4738 27.7598 39.7228 27.7509 39.8573 27.6041C39.9884 27.4609 40 26.6 40 16.9596V6.47068L38.4392 3.3844C37.5809 1.68688 36.8184 0.23102 36.7448 0.149017C36.6188 0.00843013 35.9418 0 24.8307 0C15.5393 0 13.0203 0.0224803 12.9085 0.106441ZM24.3103 3.57642V6.131H20.6897C17.1839 6.131 17.0635 6.13637 16.8966 6.30131C16.8017 6.39498 16.7241 6.54825 16.7241 6.64192C16.7241 6.73559 16.8017 6.88886 16.8966 6.98253C17.0572 7.14117 17.1839 7.15284 18.75 7.15284H20.431V9.32424C20.431 11.3821 20.4401 11.5046 20.6034 11.6659C20.7712 11.8316 20.8908 11.8362 24.9951 11.8362H29.2144L29.3485 11.6469C29.4615 11.4878 29.4828 11.1156 29.4828 9.30525V7.15284H34.2241H38.9655V16.9454V26.738H34.0948H29.2241V23.5728C29.2241 20.747 29.2089 20.3908 29.0815 20.2518C28.8115 19.9571 28.5152 20.054 27.9747 20.6136L27.475 21.1311L26.9464 20.6136C26.6061 20.2804 26.3468 20.0961 26.2187 20.0961C26.0928 20.0961 25.8225 20.283 25.4833 20.6048L24.947 21.1134L24.4374 20.6048C24.1003 20.2682 23.8587 20.0961 23.7237 20.0961C23.5916 20.0961 23.3303 20.2757 22.9833 20.6048L22.447 21.1134L21.9374 20.6048C21.3951 20.0634 21.1384 19.9768 20.8473 20.237C20.6999 20.3687 20.6897 20.5854 20.6897 23.558V26.738H19.1393H17.589L18.5359 24.858C19.4102 23.1222 19.4828 22.9405 19.4828 22.489C19.4828 21.1061 18.4997 20.0961 17.1537 20.0961C16.7016 20.0961 16.4851 20.1449 16.1146 20.3302C15.7109 20.5322 15.4684 20.7809 14.35 22.1397C12.7331 24.1044 12.6602 24.1522 11.056 24.3031L10.6034 24.3457V15.7493V7.15284H12.2845C13.8506 7.15284 13.9773 7.14117 14.1379 6.98253C14.2328 6.88886 14.3103 6.73559 14.3103 6.64192C14.3103 6.54825 14.2328 6.39498 14.1379 6.30131C13.9787 6.14403 13.8506 6.131 12.4637 6.131H10.962L12.2266 3.57744L13.4914 1.02379L18.9009 1.02286L24.3103 1.02183V3.57642ZM37.3498 3.53418C38.0488 4.91604 38.6207 6.06561 38.6207 6.08877C38.6207 6.11202 35.6336 6.131 31.9828 6.131H25.3448V3.57642V1.02183H30.7119H36.079L37.3498 3.53418ZM28.4483 8.98362V10.8144H24.9569H21.4655V8.98362V7.15284H24.9569H28.4483V8.98362ZM12.7289 9.2671C12.5163 9.49914 12.5348 10.2527 12.7586 10.4738C13.1682 10.8784 13.6207 10.55 13.6207 9.84835C13.6207 9.51557 13.5783 9.35532 13.463 9.25228C13.2548 9.06614 12.9066 9.0732 12.7289 9.2671ZM12.7586 11.4105C12.5928 11.5743 12.5862 11.6943 12.5862 14.5611C12.5862 17.428 12.5928 17.548 12.7586 17.7118C12.8534 17.8055 13.0086 17.8821 13.1034 17.8821C13.1983 17.8821 13.3534 17.8055 13.4483 17.7118C13.6141 17.548 13.6207 17.428 13.6207 14.5611C13.6207 11.6943 13.6141 11.5743 13.4483 11.4105C13.3534 11.3168 13.1983 11.2402 13.1034 11.2402C13.0086 11.2402 12.8534 11.3168 12.7586 11.4105ZM17.8241 21.2878C18.2078 21.5189 18.4476 21.9353 18.4479 22.3715C18.4482 22.662 18.2341 23.1555 17.3339 24.9406C16.6028 26.3899 16.2351 27.2092 16.2648 27.3217C16.3853 27.7768 16.0955 27.757 22.9912 27.7806L29.3753 27.8024L25.9236 29.9738C21.3891 32.8265 20.929 33.0972 20.2759 33.2965C19.4243 33.5563 18.6397 33.5139 15.5735 33.0429C12.0647 32.5038 12.4453 32.4524 10.3638 33.7454C9.68664 34.166 9.11871 34.4953 9.10155 34.4772C9.04552 34.4179 7.31216 28.8536 7.34181 28.8281C7.35767 28.8144 7.59078 28.6978 7.85983 28.569C8.57224 28.2277 8.96552 27.8826 8.96552 27.5988C8.96552 27.1144 9.23319 26.469 9.59629 26.0781C10.0791 25.5583 10.5547 25.3625 11.5356 25.2803C12.3547 25.2115 12.9763 25.0017 13.5434 24.603C13.6857 24.5028 14.3781 23.7237 15.082 22.8715C15.7859 22.0192 16.453 21.2786 16.5646 21.2257C16.8945 21.069 17.5113 21.0994 17.8241 21.2878ZM24.2741 21.8843C24.5703 22.1653 24.8776 22.3952 24.9569 22.3952C25.0362 22.3952 25.3435 22.1653 25.6397 21.8843C25.936 21.6033 26.219 21.3734 26.2684 21.3734C26.318 21.3734 26.5021 21.5464 26.6775 21.7579C26.9772 22.1192 27.371 22.3952 27.5868 22.3952C27.6392 22.3952 27.7963 22.2717 27.9359 22.1208L28.1897 21.8463V24.2921V26.738H24.9569H21.7241V24.3023V21.8667L22.0289 22.1309C22.1965 22.2762 22.3943 22.3952 22.4684 22.3952C22.5427 22.3952 22.842 22.1661 23.1336 21.8859C23.4252 21.6057 23.6799 21.3758 23.6996 21.375C23.7192 21.3741 23.9778 21.6033 24.2741 21.8843ZM6.37043 29.3564C6.55931 29.9535 7.22147 32.0797 7.8419 34.0811C8.46233 36.0827 8.9925 37.7782 9.02009 37.8492C9.06414 37.9627 8.75284 37.9782 6.43164 37.9782C4.98043 37.9782 3.7931 37.9605 3.7931 37.9387C3.7931 37.917 3.19181 35.7679 2.4569 33.1629C1.72198 30.5579 1.12069 28.3915 1.12069 28.3487C1.12069 28.3034 2.14785 28.2707 3.57388 28.2707H6.02707L6.37043 29.3564ZM5.01285 35.1422C4.57759 35.3541 4.27629 35.8592 4.28397 36.3641C4.29621 37.1647 4.85276 37.7227 5.63905 37.7227C6.20491 37.7227 6.62595 37.5019 6.87362 37.0752C7.56793 35.8788 6.27 34.5305 5.01285 35.1422ZM5.94431 36.1427C6.00121 36.2104 6.035 36.354 6.01957 36.462C5.98009 36.7372 5.48603 36.7911 5.3475 36.5355C5.14491 36.1616 5.66991 35.8161 5.94431 36.1427Z" fill="#DD4141"/>
</svg>
